<svg xmlns="http://www.w3.org/2000/svg" width="720" height="90" viewBox="0 0 7200 900" xmlns:xlink="http://www.w3.org/1999/xlink" shape-rendering="geometricPrecision" text-rendering="geometricPrecision" image-rendering="optimizeQuality" fill-rule="evenodd" clip-rule="evenodd">
  <defs>
    <style>
      .logo_w,[id^=mdl_txt_]{fill:#fff;fill-rule:nonzero}#left_back path{fill:#fff}#cntrltxt_shd path,.logo_bl,[id^=arm_],[id^=g_eye_],[id^=ndot],[id^=nstar],[id^=star]{fill:#2b2d42}.star_wrp{fill:none}#cntrltxt_shd path{filter:url(&quot;#blur2&quot;)}
    </style>
    <filter id="blur1" x="-50%" y="-50%" width="200%" height="200%">
      <feGaussianBlur in="SourceGraphic" stdDeviation="200"/>
    </filter>
    <filter id="blur2" x="-50%" y="-50%" width="200%" height="200%">
      <feGaussianBlur in="SourceGraphic" stdDeviation="40"/>
    </filter>
    <radialGradient id="id1" gradientUnits="userSpaceOnUse" gradientTransform="matrix(1 0 0 .5048 0 227)" cx="912.427" cy="457.642" r="715.123" fx="912.427" fy="457.642">
      <stop offset="0" stop-opacity=".4" stop-color="#fff"/>
      <stop offset="1" stop-opacity="0" stop-color="#fff"/>
    </radialGradient>
    <linearGradient id="id0_or" gradientUnits="userSpaceOnUse" x1=".006" y1="-590.221" x2="11922.5" y2="900.001">
      <stop offset="0" stop-color="#eb503e"/>
      <stop offset=".6" stop-color="#bf1f1f"/>
      <stop offset="1" stop-color="#a4000b"/>
    </linearGradient>
    <linearGradient id="id2_or" gradientUnits="userSpaceOnUse" x1="6972.77" y1="633.713" x2="4980.28" y2="677.005">
      <stop offset="0" stop-color="#fad961"/>
      <stop offset="1" stop-color="#f76b1c"/>
    </linearGradient>
    <linearGradient id="id3_or" gradientUnits="userSpaceOnUse" xlink:href="#id2_or" x1="6851.63" y1="164.934" x2="3797.04" y2="208.226"/>
    <linearGradient id="id4_or" gradientUnits="userSpaceOnUse" xlink:href="#id2_or" x1="4534.8" y1="121.083" x2="0" y2="190.719"/>
  </defs>
  <g id="back_or">
    <path id="Rectangle-8" fill="url(#id0_or)" d="M0 0h7200v900H0z"/>
    <path id="banner2" fill="url(#id3_or)" fill-opacity=".1" d="M7200 136v109l-4167-33z"/>
    <path id="Rectangle-14-Copy-2" fill="url(#id2_or)" fill-opacity=".1" d="M7200 605v109l-2718-33z"/>
    <path id="banner1" fill="url(#id4_or)" fill-opacity=".1" d="M0 99v108l4836-32z"/>
    <g id="banenr3">
      <path id="Rectangle-12" fill="#9a201d" fill-opacity=".5" d="M7200 748L0 807v93l7200-131z"/>
      <path id="Rectangle-9" fill="#f8504a" fill-opacity=".5" d="M0 747h7200v153L0 763z"/>
      <rect opacity=".25" transform="translate(40 40)" x="5610" y="175" width="1402" height="581" rx="20" ry="20" filter="url(&quot;#blur2&quot;)" fill="#2b2d42"/>
      <path id="back_pattern" d="M6015 97h156c12 0 21-9 21-21 1-27 0-55 0-82 0-11-9-20-20-20h-157c-12 0-21 9-21 20v82c0 11 9 21 21 21zm101-59l20-32h16v31h6v9h-6v13h-12V47h-24v-9zm-25-33c15 0 20 13 20 27 0 16-6 28-20 28s-20-13-20-28 7-27 20-27zm-66 33l20-32h15v31h6v9h-6v13h-12V47h-23v-9zm66 13c5 0 8-6 8-18s-3-18-8-18-7 5-7 18c0 12 3 18 7 18zm-43-26V15c-1 4-3 7-5 10l-7 12h12V25zm92 0V15c-2 4-3 7-5 10l-7 12h12V25zm1064 532V340h-217v217h217zm-81-92c-1-31 45-36 58-10l-16 10c-4-11-22-13-23-1-1 19 45 11 45 48 0 33-54 39-71 7l17-10c8 17 34 16 34 3 0-17-44-12-44-47zm-62 46c8 15 24 15 24-2v-69h20v69c5 35-47 43-61 12l17-10zm-198-47c-2-16-15-28-31-29 6-9 7-20 3-30s-14-17-25-19c5-7 5-17 0-24-7-8-17-13-27-11 5-12 2-26-8-35-13-16-31-27-51-33-4-1 0 4 3 11 1 7-2 13-6 17-8 9-10 17-4 25-10 2-20 8-25 17-7 10-8 23-2 34-11 1-20 8-24 18-5 10-4 22 3 31-23 5-33 18-31 38s15 26 37 23c21-5 44-5 66-1 31 4 62 4 93 0 18-3 31-13 29-32zm-173-58c0-14 9-31 25-31 13 0 24 14 24 31 0 16-11 31-24 31-14 0-25-15-25-31zm97 52c-25 18-49 20-73-1-7-7-7-9 1-11h71c13 2 2 12 1 12zm2-23c-16 0-25-17-25-30 0-17 11-31 25-31 13 0 24 14 24 31 0 13-9 30-24 30zm-1-48c6 0 12 8 12 18s-6 19-12 19c-7 0-12-9-12-19s5-18 12-18zm-74-1c7 0 12 8 12 19 0 10-5 18-12 18-6 0-12-8-12-18 0-11 6-19 12-19zm-331 131l-29-11c7-37-18-72-55-79-27-5-54 6-69 29l-14-16c-3-3-6-4-10-3l-21 4c3-38-25-71-62-75-27-2-53 12-66 36l-29-10c-14-10-23 16-7 18l29 10c-7 37 17 73 55 80 30 6 61-10 74-39l25-4 17 19c-9 36 13 74 49 83 31 8 62-6 77-34l29 11c12 4 19-15 7-19zm-220-68c-9 26-36 39-62 31-25-9-38-37-30-62 9-25 36-39 62-30 25 8 38 36 30 61zm157 9l-18 15-37-23c18-9 40-5 55 8zm-65-1l32 21-47 4c2-10 7-18 15-25zm15 81c-19-7-31-24-32-44l50-5-20 24c-5 6 3 14 9 8 8-8 16-20 24-29l11 23c3 7 14 2 11-5l-9-18 9 4c13 0 10-9 5-11l-14-7 13-11c25 39-13 87-57 71zm713-351h283c9 0 17-7 17-17V3c0-9-8-17-17-17h-283c-9 0-17 8-17 17v167c0 10 8 17 17 17zm288-17c0 3-2 6-6 6h-282c-3 0-5-3-5-6V18h293v152zM7210-1h57c6-1 6 8 0 8h-57c-6 0-6-8 0-8zm-155 0h142c6 0 6 8 0 8h-142c-5 0-5-7 0-8zm-17 1l3 3-3 3V0zm-6 0v6l-3-3 3-3zm-15 3c0 3-2 5-5 5s-5-2-5-5c0-6 10-7 10 0zm-15 0c0 3-2 5-5 5-2 0-5-2-5-5 0-6 10-7 10 0zm-15 0c0 3-2 5-4 5-3 0-5-2-5-5 0-6 9-7 9 0zm87 149h101c34 0 44-47 13-62-4-9-13-16-23-18-6-22-30-35-52-28-11 3-21 11-26 22-14 2-26 12-29 26-27 18-15 59 16 60zm-8-54c1-15 13-23 28-23 5-17 23-27 40-22 12 4 21 15 23 28 11 0 21 5 24 17 24 8 19 44-7 45h-100c-25-1-31-35-8-45zm30 30c16-13 41-13 57 0 3 4 9-1 5-5-18-16-49-16-68 0-3 4 2 9 6 5zm51-27c4 0 7-3 7-7s-3-7-7-7-7 3-7 7 3 7 7 7zm-45 0c4 0 7-3 7-7s-3-7-7-7-7 3-7 7 3 7 7 7zm-435-54l28 20-20 18 29-1 1 30 20-27 68 16-59-41 7-83-34 69-40-1zm63-28l-4 47 30 21-35-8-9 13V76h-15l10-9-15-12 20 1 18-37zm31 43c1 0 1 1 1 2v11l12 8 2-68c0-5-5-10-10-10h-21l-1 15c1-1 16 0 18 0 1 0 2 0 2 1v7c-1 1-1 2-2 2h-17l-2 6 19 1c1 0 1 0 1 1v17c0 1 0 2-1 2l-21-1v5l2 1h18zm-91-26v6h7v-7s0-1 1-1l18 1c1 0 1 0 1 1v7h7v-7c0-1 0-1 1-1h4l14-31h-35l-10 13-5 5-2 6c0 1-1 2-1 1h-3l-4 5h6c1 0 1 1 1 2zm29-21c1 0 2 0 2 1l3 6c0 1 0 2-1 2l-16 7c-1 0-2 0-2-1l-3-6c0-1 0-2 1-2 5-2 11-5 16-7zm-292 148l192-21 7-12-90 10c-1 0-2-1-2-1l-2-17c0-1 1-2 2-2l104-11 4-8-7-1-1-1 3-17c0-1 1-1 1-1l11 2-1-9-6-2c-1 0-2-1-1-2l4-16c0-1 1-2 2-1l4 1 4-7c-1 0-1 0-1-1l-2-17c-1-1 0-1 1-2h5l1-8-6-1c-1 0-1-1-1-2l1-6c0-1 1-2 1-2l10 2 10-16-262 29c-6 1-10 6-9 11l13 120c0 6 5 10 11 9zm-8-64l-2-17c0-1 1-2 1-2l31-3c1 0 1 0 1 1l2 17c0 1 0 1-1 2l-30 3c-1 0-2 0-2-1zm3 27l-2-17c0-1 1-2 1-2l47-5c1 0 2 1 2 1l2 17c0 1-1 2-2 2l-46 5c-1 0-2-1-2-1zm145-69l-17 2c-1 0-2-1-2-2l-2-17 1-1 17-2c1 0 2 0 2 1l2 17c0 1 0 2-1 2zm14 5s1 0 1 1l2 17c0 1 0 2-1 2l-17 2c-1 0-2-1-2-2l-2-17s1-1 2-1l17-2zm-27 3c1 0 1 0 1 1l2 17c0 1 0 1-1 2l-17 1c-1 1-1 0-2-1l-1-17c0-1 0-2 1-2l17-1zm-31-4c-1 1-2 0-2-1l-2-17s1-1 2-1l17-2s1 0 1 1l2 17c0 1 0 1-1 2l-17 1zm4 7c1 0 2 0 2 1l2 17c0 1 0 1-1 2l-17 1c-1 1-1 0-2-1l-1-17c-1 0 0-1 1-1l16-2zm-6 28s1 0 1 1l2 17c0 1 0 1-1 1l-17 2c-1 0-2 0-2-1l-2-17c0-1 1-1 1-1l18-2zm-35-4c-1 0-1 0-1-1l-2-17c0-1 0-2 1-2l17-2c1 0 2 1 2 2l2 17-1 1-18 2zm8 7c1-1 2 0 2 1l2 17-1 1-18 2s-1 0-1-1l-2-17c0-1 0-1 1-2l17-1zm-34-4c-1 0-2 0-2-1l-1-17c0-1 0-2 1-2l17-2c1 0 2 1 2 2l2 17s-1 1-2 1l-17 2zm-33 57c-1 0-2 0-2-1l-2-17c0-1 1-2 1-2l27-3c1 0 2 1 2 2l2 17s0 1-1 1l-27 3zm36-4c-1 0-2 0-2-1l-2-17c0-1 1-2 1-2l27-3c1 0 2 1 2 2l2 16c0 1 0 2-1 2l-27 3zm36-4c-1 0-2 0-2-1l-2-17c0-1 1-2 1-2l27-3c1 0 2 1 2 2l3 17c0 1-1 1-1 1l-28 3zm51-31l-18 2-1-1-2-17c0-1 0-2 1-2l17-2c1 0 2 1 2 1l2 17c0 1-1 2-1 2zm9-1c-1 0-2-1-2-1l-2-17c0-1 1-2 2-2l17-2 1 1v1l2 16c0 1 0 2-1 2l-17 2zm26-3c-1 0-1 0-1-1l-2-18s0-1 1-1l17-2c1 0 2 0 2 1l2 17c0 1-1 2-2 2l-17 2zm4-46c-1-1 0-2 1-2l17-2c1 0 1 1 2 2l1 16c1 1 0 1-1 2l-17 1c-1 1-1 0-2-1l-1-16zm38 43c0 1-1 1-2 1l-17-4s-1-1-1-2l4-16c0-1 1-1 2-1l17 4 1 1-4 17zm5-54c-1 0-2 0-2-1l-6-16c-1 0 0-1 0-2l16-6c1 0 2 0 2 1l7 16-1 1c0 1-14 6-16 7zm-8-38l17-2 1 1 1 7c0 1 0 2-1 2l-17 2c-1 0-2-1-2-1l-1-7c0-1 1-2 2-2zm14 48c1 0 1 1 1 2l-8 15c0 1-1 1-2 1l-15-8c-1 0-1-1-1-2l8-15c0-1 1-1 2-1 0 0 13 7 15 8zm-19-29l2 17-1 1-18 2s-1 0-1-1l-2-17c0-1 0-2 1-2l17-2c1 0 2 1 2 1v1zm-25-16l17-2s1 1 1 2l1 7s0 1-1 1l-17 2c-1 0-2 0-2-1l-1-7c0-1 1-2 2-2zm0 35c0 1 0 2-1 2l-17 2c-1 0-2-1-2-2l-2-17s1-1 2-1l17-2c1 0 1 0 2 1l1 17zm-30-32l17-1c1-1 1 0 1 1l1 7c0 1 0 1-1 1l-17 2h-2c0-1-1-7-1-8s1-1 1-2h1zm-30 4l17-2c1 0 1 0 1 1l1 7c0 1 0 2-1 2l-17 2c-1 0-2-1-2-2 0-2 0-5-1-7 0-1 1-1 2-1zm-30 3l17-2c1 0 1 1 1 1l1 7c0 1 0 2-1 2l-17 2c-1 0-2-1-2-1l-1-7c0-1 1-2 2-2zm8 16c1 0 1 1 1 1l2 17c0 1 0 2-1 2l-17 2c-1 0-2-1-2-1l-2-17c0-1 1-2 1-2s16-2 18-2zm-21-15c1 0 1 1 2 2v7c0 1 0 1-1 1l-17 2c-1 1-2 0-2 0l-1-8c0-1 1-2 2-2l17-2zm-6 18c1 0 2 0 2 1l2 17c0 1 0 2-1 2l-17 2c-1 0-2-1-2-2l-2-16c0-1 0-2 1-2 1-1 15-2 17-2zm-24-14c1 0 1 0 1 1l1 7c0 1 0 2-1 2l-17 2c-1 0-2-1-2-1l-1-7c0-1 1-2 1-2l18-2zm-19 19l17-2c1 0 2 0 2 1l2 17c0 1-1 1-2 1l-17 2c-1 0-1 0-1-1l-2-17c0-1 0-1 1-1zm-29-6l-1-7s1-1 2-1l17-2c1 0 1 0 1 1l1 7c0 1 0 2-1 2l-17 2c-1 0-2-1-2-1v-1zm3 8l17-1c0-1 1 0 1 1l2 17s0 1-1 1l-17 2c-1 0-2 0-2-1l-2-17c0-1 1-1 2-2zm257 9l5 2c1 0 1 1 1 2-2 5-5 11-7 16 0 0-1 1-2 1-1-1-2-1-2-2v10l-5 17c-1 0-1 1-2 1l-4-2-4 6h18c1 0 1 1 1 1v17c0 1 0 2-1 2l-32-1-7 11 150 4c6 0 11-5 11-10l1-34-12-2-3 11c-1 1-1 1-2 1-9-3-18-5-26-8-1 0-1-1-1-2 0 0 2-8 3-9l-7-1-1 1v14s0 1-1 1h-9l-5 6h14c1 0 2 1 2 2v17s-1 1-2 1l-27-1c-1 0-1 0-1-1v-17c0-1 0-1 1-1h3v-7h-19c-1 0-2-1-2-1V90h-7l1 15c0 1-1 2-1 2-6 0-12 0-18 1 0 0-1-1-1-2 0-5-1-11-1-16 0-1 0-2 1-2 4 0 9-1 13-1l4-4-10-13c-1-1-1-1 0-2 4-4 8-7 13-11l-1-1c-4-2-7-3-11-6l2 4h-5l-5 8zm79 54l27-1c1 0 2 1 2 1 0 6 0 12 1 17 0 1-1 2-2 2-8 0-18 1-27 1 0 0-1 0-1-1 0-6-1-12-1-17 0-2 1-2 1-2zm-73-1c0-1 0-2 1-2l27 1c1 0 1 1 1 2v17s0 1-1 1l-27-1c-1 0-1 0-1-1v-17zm-433 581h-34c-4 1-4 6 0 7h34c4 0 5-6 1-7h-1zm-8 204c0 6-4 10-9 10s-10-4-10-10c0-12 19-12 19 0zm34-225h-87c-12 0-21 10-21 22v50h34l-13-25c-2-5 5-9 8-4l14 29h52c2-2 4-1 6 0h29v-50c0-12-10-22-22-22zm-108 205v26c0 12 9 22 21 22h87c12 0 22-10 22-22v-24l-130-2zm14-183c0-4 3-8 7-8h87c4 0 8 4 8 8v13h-102v-13zm102 209c0 4-4 8-7 8h-88c-4 0-7-4-7-8v-19h102v19zm1026-16h-6c1-2 1-4 1-6V723c0-9-7-16-16-17h-273c-9 0-16 8-16 17v24h11v-24c0-3 2-5 5-5h273c3 0 6 2 6 5v161c0 3-3 6-6 6h-65v10l-241-5c-2 3-4 7-4 11v5c0 9 8 16 17 16h314c9 0 16-7 16-16v-5c0-9-7-16-16-16zm5 21c0 3-2 5-5 5h-314c-3 0-6-2-6-5v-5c0-3 3-5 6-5h314c3 0 5 2 5 5v5zm-169-183h26c3 0 3-5 0-5h-26c-4 0-4 5 0 5zm-7-3c0 3-2 4-4 4-3 0-4-1-4-4 0-5 8-5 8 0zm146 8h-265v14h9c-3-4 2-9 6-6l7 6h47l1-3c0-6 9-4 9 1l-1 2h126v105l6 3c5 2 1 11-5 8l-1-1v7h61V733zm-831 153c-8 2-9 11-2 14 4 1 14-1 15-5 0-6-8-10-13-9zm232-139c-7 0-14 0-18-1l-6-1c-3-2-3-6-5-10 0-2-2-3-4-4-4-1-3-5 1-6 4 0 8-1 12-2 2-1 4-4 3-6 0-2-2-4-4-4-3-1-6 1-9 1-11 1-23-2-23-15 0-3 2-4 2-7-1-3-5-2-5-4-1-4 13-19 15-22 3-3 6-4 5-8-1-2-4-3-6-2-5 1-8 11-10 15-9 12-22 14-26 7-1-2-1-4-3-5-2 0-3 2-5 2-5 1-12-3-12-15 0-3 3-18-4-16-8 2 3 24-5 26-4 1-5-6-9-5-3 1-4 4-6 0-3-3-4-15-10-14-6 2 4 13 5 15 1 3 2 11-2 11-3 0-3-6-7-5-6 2 4 6 3 7-2 2-5-1-7 0-4 2 1 10 3 14 3 6 2 10-7 11h-1c-2 0-6-3-6 1 0 3 4 3 5 5 6 7 6 13-5 12-3-1-5-1-8-2l-59-42c-3-2-16-12-25-7s-6 21-4 29c3 11 9 20 17 28 7 7 16 12 26 13 5 0 10 0 15-2 12-4 10-4 20-10l3-2c6 1 18 4 20 9 1 2 6 5 6 11h16l7-42 18 3-7 39h19c-2-4-3-9-2-15 6-26 45-23 52 1l-15 6c-2-10-16-14-19-4v1c-1 4 2 8 7 11h64zm-175 139l-13 26c-1 3-20 21-13 28 8 4 17-22 17-24 3-5 6-10 9-14 3-3 6-9 10-15l-10-1zm-33-155c-12-4-21-13-27-24-2-6-8-24-3-28 2-1 9 3 14 7l36 26 14 9c-11 8-19 13-34 10zm175-83c-6 3 6 7 3 1 0-1-2-2-3-1zm-84 240c-1 3-1 7 1 7 4 0 7-3 8-7h-9zm74-193l1 1c1 1 2 1 3 0 7-5 14-9 22-12 3 2 6 1 8-2 1-2 1-6-2-7-3-2-6-1-8 2 0 0-1 1-1 2-8 3-15 7-22 12-1 1-1 3-1 4zm-126-32v-2c-2-3-5-5-8-4s-4 4-3 7 4 5 7 4h1c6 4 12 10 18 16 0 1 2 1 3 1l1-1c1-1 1-3 0-4-6-6-12-12-19-17zm-111 221c-2 2-4 5-3 8s9-3 10-4c1 0 3-2 5-3l-12-1zm485-142l-3-2h-2l-7 7h9l3-3v-2zm-25 5l-7-7c-1-1-2-1-2 0-1 0-2 2-2 2-1 1-1 2 0 2l2 3h9zm-839-33c-2-3-7-3-9 0l-17 33h17l-1-5v-9h12l-1 9v5h17l-18-33zm523-272l-2-2c-1 0-2-1-2 0l-14 13-14-13c0-1-1-1-2 0 0 0-1 2-2 2-1 1 0 2 0 2l14 14-14 13v2l2 2c1 1 2 1 2 0 5-4 9-9 14-13l14 13c0 1 1 1 2 0l2-2c1 0 0-1 0-2l-13-13 13-14v-2zm-442-232l-2-2c-1-1-2-1-2 0l-14 13-14-14h-2c0 1-1 2-2 3-1 0 0 1 0 2l14 14-14 13c-1 0-1 1 0 2 0 0 2 1 2 2 1 1 2 1 2 0l14-14 14 14c0 1 1 1 2 0l2-2v-2l-13-14 13-13v-2zm1331-54l-14-14h-2c-1 1-2 2-2 3-1 0-1 1 0 2l13 14-13 13c-1 0-1 1 0 2l2 2c0 1 1 1 2 0 4-5 9-9 14-14v1-9zM6402 260c-2-4-7-4-9 0l-32 58c-2 3 1 8 5 8h63c4 0 6-5 4-8l-31-58zm1 58h-11v-9h11v9zm0-30l-2 18h-7l-2-18v-9h11v9zm944 272c-3-4-8-4-11 0l-36 67c-2 4 0 9 5 9h72c5 0 8-5 6-9l-36-67zm0 67h-12v-11h13l-1 11zm0-35l-1 21h-9l-2-21v-10h13l-1 10zM4082 97h156c12 0 21-9 21-21 1-27 0-55 0-82 0-11-9-20-20-20h-157c-12 0-21 9-21 20v82c0 11 9 21 21 21zm101-59l20-32h16v31h6v9h-6v13h-12V47h-24v-9zm-24-33c14 0 19 13 19 27 0 16-6 28-20 28-13 0-20-13-20-28s7-27 21-27zm-67 33l20-32h15v31h6v9h-6v13h-12V47h-23v-9zm66 13c5 0 8-6 8-18s-3-18-8-18-7 5-7 18c0 12 3 18 7 18zm-43-26V15c-1 4-3 7-5 10l-7 12h12V25zm92 0V15c-2 4-3 7-5 10l-7 12h12V25zm1064 532V340h-217v217h217zm-81-92c-1-31 45-36 58-10l-16 10c-4-11-21-13-23-1-1 19 45 11 45 48 0 33-54 39-71 7l17-10c8 17 34 16 34 3 0-17-44-12-44-47zm-62 46c8 15 24 15 24-2v-69h20v69c5 35-47 43-61 12l17-10zm422 367c0-3 1-6 1-9l-16-1v22c0 30 12 41 42 41v-12c-29 1-27-18-27-41zm0-131c0-23-2-41 27-40v-12h-2c-28-1-40 13-40 40v12h15zm190-12c0-27-12-41-40-40h-2v12c29-1 27 17 27 40h14c1-5 1-9 1-12zm-16 137c0 8 1 17 0 25 0 17-10 22-26 21v12c29 0 42-10 42-40v-18h-16zm-27-125l-26-27h-89c-9 0-15 8-15 17v10h16v-10h78v10h36zm-130 122v19c0 9 6 17 15 17h31s46 40 87-1c8-9 14-20 16-32l-51-1v4h-15v-5l-54-1c1 12 5 19 5 19h-18v-19h-16zm79 12h23v20h-23v-20zm205-439h-2c-2-2-3-3-5-4s-4-1-5-1c-6-14-17-23-31-26l4-61c0-1-1-2-1-2l-32-42c7-1 15-4 21-8-2 7 7 13 13 8l5-4 4 5c5 6 14 2 14-5 0-4-3-7-6-10l5-5c8-6-2-19-10-12l-5 4-4-5c-7-8-19 3-13 11-7-11-36-17-52-20 2-5-1-11-6-13-7-3-15 3-14 10-12-1-24-2-37-2-18-1-35-1-53 1l2-2c7-6-1-15-8-10l-3 3-3-3c-5-7-15 1-10 8l3 3-4 4c-30 5-37 12-37 18 0 5 7 12 23 17 0 5 5 8 10 8 3-1 6-3 7-6v99c-41 9-62 27-61 54-2 1-3 2-4 2l-2 1c-3 1-5 5-4 8 0 3-1 4 1 7 0 2 0 4 2 5v2c0 2 1 3 3 4 2 0 4 0 6-1 1-1 2-2 4-2-1 2 0 4 2 6 1 2 3 4 6 4 0 0 1 0 2-1l1-1c3-2 2-5 1-7v-2c0-1 1-2 1-3v-4c1-2 1-4 1-6 0-7-3-14-10-15h-4c2-21 19-35 53-42v118c0 7 5 12 11 12l65-7v24c-4 0-6 2-6 3 0 2 4 4 9 4s9-2 9-4-2-2-4-3v-25l11-1v20c-3 1-4 2-4 4 0 1 4 4 9 4s9-2 9-4c0-3-3-4-6-4 1-6 1-15 0-21l67-7c6 1 11-4 12-10 3-30 4-62 6-93 10 3 18 9 23 18-2 1-3 3-5 5-1 3-2 6-2 9 0 2 0 4 1 6 1 3 1 6 0 9-2 5-1 9 4 9 4-1 7-5 8-9v-3c2 2 4 3 6 4 1 1 4 1 6 1 2-1 3-3 3-6 2-1 2-3 2-5 1-2 1-4 0-6 0-4 2-6-2-9zm-230-145c-2-5-7-7-12-6-1 1-3 2-4 4-7-3-10-6-10-7 0-14 91-13 99-13 23 1 47 3 70 8 22 5 27 10 27 12s-4 5-15 8l-13-17c-1-1-2-2-4-2h-127c-7 0-11 6-11 13zm172 215c-1 1-2 2-3 2l-109 11-29 3c-12 1-18-3-19-11 0-73-4-148-4-222 0-2 2-3 3-3h126l2 3-4 32c-1 8 4 15 11 16 11 1 22 2 33 4l4 4-11 161zm-122-152l-3 6c-2 5 6 8 8 3l2-6 7 2c5 2 8-5 3-8l-6-2 2-6c2-5-6-8-8-3l-2 6-6-2c-5-3-9 5-4 7l7 3zm47-5l6 2-2 7c-2 5 5 8 7 3l3-6 6 2c5 2 8-6 3-8l-6-2 2-6c2-5-5-8-7-3l-3 6-6-3c-5-2-8 6-3 8zm66 85h-135c-4 0-4 7 0 7h135c5 0 5-7 0-7zm0 19h-135c-4 0-4 6 0 6h135c5 0 5-6 0-6zm-69 15h-65c-5 0-5 6 0 6h65c4 0 4-6 0-6zm-126-157l-3 3-3-3c-6-6-15 2-10 8l3 3-3 3c-7 6 1 15 8 10l3-3 3 3c5 7 15-1 10-8l-3-3 3-3c6-5-2-15-8-10zm195 181l-1-1-2-1h-2l-2-1s-1 0-1-1c0 0-1 0-1-1v-1c1 0 1-1 1-1h5l1 1h2l1-1c-1-1-2-2-3-2-1-1-2-1-4-1h-3c-1 0-2 0-2 1l-2 2v5l1 1c1 1 1 1 2 1l2 1 2 1h2l1 1v1c0 1 0 2-1 2 0 1-1 1-2 1h-4l-1-1h-2l-1 2c1 1 1 1 2 1l2 1h4c1 0 2-1 3-1s2-1 3-2c1 0 1-1 2-2v-2-2c-1 0-1-1-2-1zm-21 4v2c0 1 0 1-1 2l-1 1h-4v3h3c1 0 3 0 4-1 1 0 1-1 2-2 1 0 1-1 2-2v-18l-4-1-1 16zm-99-95l8-8 9 8c2 1 5 1 7 0l8-8 9 8c2 1 5 1 7 0l8-8 9 8c1 1 4 1 6 0l8-8 9 8c4 4 10-3 6-7l-11-10c-2-2-5-2-7 0l-8 7-8-7c-2-2-5-2-7 0l-9 7-8-7c-2-2-5-2-7 0l-9 7-8-7c-2-2-5-2-7 0l-11 9c-5 5 1 11 6 8zm-734 57c-2-16-15-28-31-29 6-9 7-20 3-30s-14-17-25-19c5-7 5-17 0-24-7-8-17-13-27-11 5-12 2-26-8-35-13-16-31-27-51-33-4-1 0 4 3 11 1 7-2 13-6 17-8 9-10 17-4 25-10 2-20 8-25 17-7 10-8 23-2 34-11 1-20 8-24 18-5 10-3 22 3 31-23 5-33 18-31 38s15 26 37 23c21-5 44-5 66-1 31 4 62 4 93 0 18-3 31-13 29-32zm-173-58c0-14 9-31 25-31 13 0 24 14 24 31 0 16-11 31-24 31-14 0-25-15-25-31zm97 52c-25 18-49 20-73-1-7-7-7-9 1-11h71c13 2 2 12 1 12zm2-23c-16 0-24-17-24-30 0-17 10-31 24-31 13 0 24 14 24 31 0 13-9 30-24 30zm-1-48c6 0 12 8 12 18s-6 19-12 19c-7 0-12-9-12-19s5-18 12-18zm-74-1c7 0 12 8 12 19 0 10-5 18-12 18-6 0-12-8-12-18 0-11 6-19 12-19zm-331 131l-29-11c7-37-18-72-55-79-27-5-54 6-69 29l-14-16c-3-3-6-4-10-3l-21 4c3-38-25-71-62-75-27-2-53 12-66 36l-29-10c-14-10-23 16-7 18l29 10c-7 37 18 73 55 80 30 6 61-10 74-39l25-4 17 19c-9 36 13 74 49 83 31 8 63-6 77-34l29 11c12 4 19-15 7-19zm-220-68c-9 26-36 39-62 31-25-9-38-37-30-62 9-25 36-39 62-30 25 8 38 36 30 61zm157 9l-18 15-37-23c18-9 40-5 55 8zm-65-1l32 21-47 4c2-10 7-18 15-25zm15 81c-19-7-31-24-32-44l50-5-20 24c-5 6 3 14 9 8 8-8 16-20 24-29l11 23c3 7 14 2 11-5l-9-18 9 4c13 0 10-9 5-11l-14-7 13-11c25 39-13 87-57 71zm713-351h283c9 0 17-7 17-17V3c0-9-8-17-17-17h-283c-9 0-17 8-17 17v167c0 10 8 17 17 17zm288-17c0 3-2 6-5 6h-283c-3 0-5-3-5-6V18h293v152zM5277-1h57c6-1 6 8 0 8h-57c-6 0-6-8 0-8zm-155 0h142c6 0 6 8 0 8h-142c-5 0-5-7 0-8zm-17 1l3 3-3 3V0zm-6 0v6l-3-3 3-3zm-15 3c0 3-2 5-5 5s-5-2-5-5c0-6 10-7 10 0zm-15 0c0 3-2 5-5 5-2 0-5-2-5-5 0-6 10-7 10 0zm-14 0c0 3-3 5-5 5-3 0-5-2-5-5 0-6 10-7 10 0zm86 149h101c34 0 44-47 13-62-4-9-13-16-23-18-6-22-30-35-52-28-11 3-21 11-26 22-14 2-26 12-29 26-27 18-15 59 16 60zm-8-54c1-15 13-23 28-23 5-17 23-27 40-22 12 4 21 15 23 28 11 0 21 5 24 17 24 8 19 44-6 45h-101c-25-1-31-35-8-45zm30 30c16-13 41-13 57 0 3 4 9-1 5-5-18-16-49-16-68 0-3 4 3 9 6 5zm51-27c4 0 7-3 7-7s-3-7-7-7-7 3-7 7 3 7 7 7zm-45 0c4 0 7-3 7-7s-3-7-7-7-7 3-7 7 3 7 7 7zm554 28c8 0 15 6 15 14s-7 15-15 15-15-7-15-15 7-14 15-14zm81-65c-26 0-47 21-47 47s21 47 47 47 47-21 47-47-21-47-47-47zm22 55h-44c-11 0-11-16 0-16h44c10 0 10 16 0 16zm-145-10c-3 3-3 8 0 11 4 3 9 3 12 0 14-14 36-18 53-9 0-6 1-11 3-17-24-9-50-3-68 15zm96-49c-42-22-93-15-127 18-10 8 5 22 12 11 26-26 66-33 100-18 4-4 9-8 15-11zm-145 0c49-49 127-51 180-6 5 1 11 2 17 5 3-3 3-9 0-12-57-57-152-54-209 2-7 7 4 19 12 11zm-898-13l28 20-20 18 29-1 1 30 20-27 68 16-59-41 7-83-34 69-40-1zm63-28l-4 47 30 21-35-8-9 13V76h-15l10-9-15-12 20 1 18-37zm31 43c1 0 1 1 1 2v11l12 8 2-68c0-5-5-10-10-10h-21l-1 15c1-1 16 0 18 0 1 0 2 0 2 1v7c-1 1-1 2-2 2h-17l-2 6 19 1c1 0 1 0 1 1v17c0 1 0 2-1 2l-21-1v5l2 1h18zm-91-26v6h7v-7s0-1 1-1l18 1c1 0 1 0 1 1v7h7v-7c0-1 0-1 1-1h4l14-31h-35l-10 13-5 5-2 6c0 1-1 2-1 1h-3l-4 5h6c1 0 1 1 1 2zm29-21c1 0 2 0 2 1l3 6c0 1 0 2-1 2l-16 7c-1 0-2 0-2-1l-3-6c0-1 0-2 1-2 5-2 11-5 16-7zm-292 148l192-21 7-12-90 10c-1 0-2-1-2-1l-2-17c0-1 1-2 2-2l104-11 4-8-7-1-1-1 3-17c0-1 1-1 2-1l10 2-1-9-6-2c-1 0-2-1-1-2l4-16c0-1 1-2 2-1l4 1 4-7c-1 0-1 0-1-1l-2-17c-1-1 0-1 1-2h5l1-8-6-1c-1 0-1-1-1-2l1-6c0-1 1-2 1-2l10 2 10-16-262 29c-6 1-10 6-9 11l13 120c0 6 6 10 11 9zm-8-64l-2-17c0-1 1-2 1-2l31-3c1 0 1 0 1 1l2 17c0 1 0 1-1 2l-30 3c-1 0-2 0-2-1zm3 27l-2-17c0-1 1-2 1-2l47-5c1 0 2 1 2 1l2 17c0 1-1 2-2 2l-46 5c-1 0-2-1-2-1zm145-69l-17 2c-1 0-2-1-2-2l-2-17 1-1 18-2s1 0 1 1l2 17c0 1 0 2-1 2zm14 5s1 0 1 1l2 17c0 1 0 2-1 2l-17 2c-1 0-2-1-2-2l-2-17s1-1 2-1l17-2zm-27 3c1 0 1 0 2 1l1 17c1 1 0 1-1 2l-17 1c-1 1-1 0-2-1l-1-17c0-1 0-2 1-2l17-1zm-31-4c-1 1-2 0-2-1l-2-17s1-1 2-1l17-2c1 0 1 0 1 1l2 17c0 1 0 1-1 2l-17 1zm4 7c1 0 2 0 2 1l2 17c1 1 0 1-1 2l-17 1c-1 1-1 0-2-1l-1-17c-1 0 0-1 1-1l16-2zm-6 28s1 0 1 1l2 17c0 1 0 1-1 1l-17 2c-1 0-2 0-2-1l-2-17c0-1 1-1 1-1l18-2zm-35-4c-1 0-1 0-1-1l-2-17c0-1 0-2 1-2l17-2c1 0 2 1 2 2l2 17-1 1-18 2zm8 7c1-1 2 0 2 1l2 17-1 1-18 2s-1 0-1-1l-2-17c0-1 0-1 1-2l17-1zm-34-4c-1 0-2 0-2-1l-1-17c0-1 0-2 1-2l17-2c1 0 2 1 2 2l2 17-1 1-18 2zm-33 57c-1 0-2 0-2-1l-2-17c0-1 1-2 1-2l27-3c1 0 2 1 2 2l2 17s0 1-1 1l-27 3zm36-4c-1 0-2 0-2-1l-2-17c0-1 1-2 1-2l27-3c1 0 2 1 2 2l2 16c0 1 0 2-1 2l-27 3zm36-4c-1 0-2 0-2-1l-2-17c0-1 1-2 1-2l27-3c1 0 2 1 2 2l3 17c0 1 0 1-1 1l-28 3zm51-31l-17 2c-1 0-2-1-2-1l-2-17c0-1 0-2 1-2l17-2c1 0 2 1 2 1l2 17c0 1-1 2-1 2zm9-1c-1 0-2-1-2-1l-2-17c0-1 1-2 2-2l17-2 1 1v1l2 16c0 1 0 2-1 2l-17 2zm26-3c-1 0-1 0-1-1l-2-18s0-1 1-1l17-2c1 0 2 0 2 1l2 17c0 1-1 2-2 2l-17 2zm4-46c-1-1 0-2 1-2l17-2c1 0 1 1 2 2l1 16c1 1 0 1-1 2l-17 1c-1 1-1 0-2-1l-1-16zm38 43c0 1-1 1-2 1l-17-4s-1-1-1-2l4-16c0-1 1-1 2-1l17 4 1 1-4 17zm5-54c-1 0-2 0-2-1l-6-16c-1 0 0-1 0-2l16-6c1 0 2 0 2 1l7 16-1 1c0 1-14 6-16 7zm-8-38l17-2 1 1 1 7c0 1 0 2-1 2l-17 2c-1 0-2-1-2-1l-1-7c0-1 1-2 2-2zm14 48c1 0 1 1 1 2l-8 15c0 1-1 1-2 1l-15-8c-1 0-1-1-1-2l8-15c0-1 1-1 2-1 0 0 13 7 15 8zm-19-29l2 17-1 1-18 2s-1 0-1-1l-2-17c0-1 0-2 1-2l17-2c1 0 2 1 2 1v1zm-25-16l17-2s1 1 1 2l1 7s0 1-1 1l-17 2c-1 0-2 0-2-1l-1-7c0-1 1-2 2-2zm0 35c0 1 0 2-1 2l-17 2c-1 0-1-1-2-2l-1-17c-1 0 0-1 1-1l17-2c1 0 1 0 2 1l1 17zm-30-32l17-1c1-1 1 0 1 1l1 7c0 1 0 1-1 1l-17 2h-2c0-1-1-7-1-8s1-1 1-2h1zm-30 4l17-2c1 0 1 0 1 1l1 7c0 1 0 2-1 2l-17 2c-1 0-2-1-2-2 0-2 0-5-1-7 0-1 1-1 2-1zm-30 3l17-2c1 0 1 1 1 1l1 7c0 1 0 2-1 2l-17 2c-1 0-2-1-2-1l-1-7c0-1 1-2 2-2zm8 16c1 0 1 1 1 1l2 17c0 1 0 2-1 2l-17 2c-1 0-2-1-2-1l-2-17c0-1 1-2 1-2s16-2 18-2zm-21-15c1 0 1 1 2 2v7c0 1 0 1-1 1l-17 2c-1 1-2 0-2 0l-1-8c0-1 1-2 2-2l17-2zm-6 18c1 0 2 0 2 1l2 17c0 1 0 2-1 2l-17 2c-1 0-2-1-2-2l-2-16c0-1 0-2 1-2 1-1 15-2 17-2zm-24-14c1 0 1 0 1 1l1 7c0 1 0 2-1 2l-17 2c-1 0-2-1-2-1l-1-7c0-1 1-2 1-2l18-2zm-19 19l17-2c1 0 2 0 2 1l2 17c0 1-1 1-2 1l-17 2c-1 0-1 0-1-1l-2-17c0-1 0-1 1-1zm-29-6l-1-7s1-1 2-1l17-2c1 0 1 0 1 1l1 7c0 1 0 2-1 2l-17 2c-1 0-2-1-2-1v-1zm3 8l17-1c0-1 1 0 1 1l2 17s0 1-1 1l-17 2c-1 0-2 0-2-1l-2-17c0-1 1-1 2-2zm257 9l5 2c1 0 1 1 1 2-2 5-5 11-7 16 0 0-1 1-2 1-1-1-2-1-2-2v10l-5 17c-1 0-1 1-2 1l-4-2-4 6h18c1 0 1 1 1 1v17c0 1 0 2-1 2l-32-1-7 11 150 4c6 0 11-5 11-10l1-34-12-2-3 11c-1 1-1 1-2 1-8-3-18-5-26-8-1 0-1-1-1-2 0 0 2-8 3-9l-7-1-1 1v14s0 1-1 1h-9l-5 6h14c1 0 2 1 2 2v17s-1 1-2 1l-27-1c-1 0-1 0-1-1v-17c0-1 0-1 1-1h3v-7h-19c-1 0-2-1-2-1V90h-7l1 15c0 1-1 2-1 2-6 0-12 0-18 1 0 0-1-1-1-2 0-5-1-11-1-16 0-1 0-2 1-2 4 0 9-1 13-1l4-4-10-13c-1-1-1-1 0-2 4-4 9-7 13-11l-1-1c-4-2-7-3-11-6l2 4h-5l-5 8zm79 54l27-1c1 0 2 1 2 1 0 6 0 12 1 17 0 1-1 2-2 2-8 0-18 1-27 1 0 0-1 0-1-1 0-6-1-12-1-17 0-2 1-2 1-2zm-73-1c0-1 0-2 1-2l27 1c1 0 1 1 1 2v17s0 1-1 1l-27-1c-1 0-1 0-1-1v-17zm-433 581h-34c-4 1-4 6 0 7h34c4 0 5-6 1-7h-1zm-8 204c0 6-4 10-9 10s-10-4-10-10c0-12 19-12 19 0zm34-225h-87c-12 0-21 10-21 22v50h34l-13-25c-2-5 5-9 8-4l14 29h52c2-2 4-1 6 0h29v-50c0-12-10-22-22-22zm-108 168v63c0 12 9 22 21 22h87c12 0 22-10 22-22v-60l-24-1 10 9c5 3-1 10-5 6l-18-15h-17l-14 29c-3 5-10 1-8-3l13-27-67-1zm14-146c0-4 3-8 7-8h87c4 0 8 4 8 8v13h-102v-13zm102 209c0 4-4 8-7 8h-88c-4 0-7-4-7-8v-19h102v19zm1026-16h-6c1-2 1-4 1-6v-19h-10v19c0 3-3 6-6 6h-273c-3 0-5-3-5-6v-25h-11v25c0 2 0 4 1 5h-5c-9 0-17 8-17 17v5c0 9 8 16 17 16h314c9 0 16-7 16-16v-5c0-9-7-16-16-16zm-5-143v-24c0-9-7-16-16-17h-273c-9 0-16 8-16 17v24h11v-24c0-3 2-5 5-5h273c3 0 6 2 6 5v24h10zm10 164c0 3-2 5-5 5h-314c-3 0-6-2-6-5v-5c0-3 3-5 6-5h314c3 0 5 2 5 5v5zm-169-183h26c3 0 3-5 0-5h-26c-4 0-4 5 0 5zm-7-3c0 3-2 4-4 4-3 0-4-1-4-4 0-5 8-5 8 0zm146 8h-265v14h9c-3-4 2-9 6-6l7 6h47l1-3c1-6 10-4 9 1l-1 2h187v-14zm-265 126v10h265v-5l-56-1c-1 1-2 1-3 0l-190-3-2 1c-2 4-7 2-8-2h-6zm-609 10c-5 3 4 6 4 2-1-2-3-2-4-2zm43 17c-8 2-9 11-2 14 4 1 14-1 15-5 0-6-8-10-13-9zm232-139c-7 0-14 0-18-1l-6-1c-3-2-3-6-4-10-1-2-3-3-5-4-4-1-3-5 1-6 4 0 8-1 12-2 2-1 4-4 3-6 0-2-2-4-4-4-3-1-6 1-9 1-11 1-23-2-23-15 0-3 2-4 2-7-1-3-5-2-5-4-1-4 13-19 15-22 3-3 6-4 5-8-1-2-4-3-6-2-5 1-8 11-10 15-9 12-22 14-26 7-1-2-1-4-3-5-2 0-3 2-4 2-6 1-13-3-13-15 0-3 3-18-4-16s3 24-5 26c-4 1-5-6-9-5-3 1-4 4-6 0-3-3-4-15-10-14-6 2 4 13 5 15 2 3 2 11-2 11-3 0-3-6-7-5-6 2 4 6 3 7-1 2-5-1-7 0-4 2 1 10 3 14 3 6 2 10-7 11h-1c-2 0-6-3-6 1 0 3 4 3 5 5 6 7 6 13-5 12-3-1-5-1-8-2l-59-42c-3-2-16-12-25-7s-6 21-4 29c3 11 9 20 17 28 7 7 16 12 26 13 5 0 10 0 15-2 12-4 10-4 21-10l2-2c6 1 18 4 20 9 1 2 6 5 6 11h16l7-42 18 3-7 39h19c-2-4-3-9-2-15 6-26 45-23 53 1l-16 6c-2-10-16-14-19-4v1c-1 4 2 8 7 11h64zm-156 103l-5 7c-1 3-24 50-27 55-1 3-20 21-13 28 8 4 17-22 17-24 3-5 6-10 9-14 7-8 20-35 27-52h-8zm-52-119c-11-4-21-13-27-24-2-6-8-24-3-28 2-1 9 3 14 7l36 26 14 9c-11 8-19 13-34 10zm175-83c-6 3 6 7 3 1 0-1-2-2-3-1zm-86 203c-2 3-3 6-2 9 1 2 2 1 4 0 1 6 3 12 4 17l4 1h5l9-15-22-4c2-2 3-4 4-6l21 3c1-2 1-3 2-5h-29zm7 28c-3 1-9 16-4 16 6 1 11-10 7-15-1-2-2-2-3-1zm69-184l1 1c1 1 2 1 3 0 7-5 14-9 22-12 3 2 6 1 8-2 1-2 1-6-2-7-3-2-6-1-8 2 0 0-1 1-1 2-8 3-15 7-22 12-1 1-1 3-1 4zm-126-32v-2c-1-3-5-5-8-4s-4 4-3 7 4 5 7 4h1c6 4 12 10 18 16 0 1 2 1 3 1l1-1c1-1 1-3 0-4-6-6-12-12-19-17zm-67 185c-14 12-37 33-41 35-3 1-8 5-6 9 1 3 9-3 10-4 5-4 25-22 44-39l-7-1zm441-106l-2-2h-3l-7 7h9l3-3v-2zm-25 5l-7-7c-1-1-2-1-2 0-1 0-2 2-2 2-1 1-1 2 0 2l2 3h9zm-839-33c-2-3-7-3-9 0l-17 33h17l-1-5v-9h12l-1 9v5h17l-18-33zm523-272l-2-2s-2-1-2 0l-14 13-14-13c0-1-1-1-2 0 0 0-1 2-2 2-1 1 0 2 0 2l14 14-14 13v2l2 2c1 1 2 1 2 0 5-4 10-9 14-13l14 13c0 1 1 1 2 0l2-2c1 0 0-1 0-2l-13-13 13-14c1-1 1-1 0-2zm-442-232l-2-2c-1-1-2-1-2 0l-14 13-14-14h-2c0 1-1 2-2 3-1 0 0 1 0 2l14 14-14 13c-1 0-1 1 0 2 1 0 2 1 2 2 1 1 2 1 2 0l14-14 14 14c0 1 1 1 2 0l2-2c1-1 0-1 0-2l-13-14 13-13v-2zm1349-65l-2-2c-1-1-2-1-3 0l-13 13-14-14h-2c-1 1-2 2-2 3-1 0-1 1 0 2l13 14-13 13c-1 0-1 1 0 2l2 2c0 1 1 1 2 0 4-5 9-9 14-14l13 14c1 1 2 1 2 0 1 0 2-1 2-2 1-1 1-1 0-2l-13-14 14-13v-2zm328 444l-2-2c-1-1-2-1-2 0l-14 13-14-14h-2c0 1-1 2-2 3-1 0 0 1 0 2l14 13-14 14c-1 0-1 1 0 2 0 0 2 1 2 2h2l14-14 14 14h2c0-1 1-2 2-2v-2l-13-14 13-14v-1zM4469 260c-2-4-7-4-9 0l-32 58c-2 3 1 8 5 8h63c4 0 6-5 4-8l-31-58zm1 58h-11v-9h11v9zm0-30l-2 18h-7l-2-18v-9h11v9zm944 272c-3-4-8-4-11 0l-36 67c-2 4 1 9 5 9h73c4 0 7-5 5-9l-36-67zm1 67h-13v-11h13v11zm0-35l-2 21h-9l-2-21v-10h13v10zM2149 97h156c12 0 21-9 21-21 1-27 0-55 0-82 0-11-9-20-20-20h-157c-12 0-21 9-21 20v82c0 11 9 21 21 21zm101-59l20-32h16v31h6v9h-6v13h-12V47h-24v-9zm-24-33c14 0 19 13 19 27 0 16-6 28-20 28-13 0-20-13-20-28s7-27 21-27zm-67 33l20-32h15v31h6v9h-6v13h-12V47h-23v-9zm66 13c5 0 8-6 8-18s-3-18-8-18-7 5-7 18c0 12 3 18 7 18zm-43-26V15c-1 4-3 7-5 10l-7 12h12V25zm92 0V15c-2 4-3 7-5 10l-7 12h12V25zm1064 532V340h-217v217h217zm-81-92c-1-31 45-36 58-10l-16 10c-4-11-21-13-23-1-1 19 45 11 45 48 0 33-54 39-71 7l17-10c8 17 34 16 34 3 0-17-44-12-44-47zm-62 46c8 15 24 15 24-2v-69h21v69c4 35-48 43-62 12l17-10zm422 367c0-13 2-30-1-44h-15c1 3 1 6 1 9v47c0 30 12 41 42 41v-12c-29 1-27-18-27-41zm0-131c0-23-2-41 27-40v-12h-2c-28-1-40 13-40 40v12h15zm190-12c0-27-12-41-40-40h-2v12c29-1 27 17 27 40h14c1-5 1-9 1-12zm-14 100v2c-3 18-1 41-2 60 0 17-10 22-26 21v12c29 0 42-10 42-40v-48-7h-14zm-29-88l-26-27h-89c-8 0-15 8-15 17v10h16v-10h78v10h36zm-130 87v54c0 9 7 17 15 17h31s46 40 87-1c18-19 22-46 12-69l-42-1v4l-5 37h-15l-4-37v-4l-36-1h-8c-15 29-1 55-1 55h-18v-55l-16 1zm79 47h23v20h-23v-20zm205-439h-2c-2-2-3-3-5-4s-4-1-5-1c-6-14-17-23-31-26l4-61c0-1-1-2-1-2l-32-42c7-1 15-4 21-8-2 7 7 13 13 8l5-4 4 5c5 6 14 2 14-5 0-4-3-7-6-10l5-5c8-6-2-19-10-12l-5 4-4-5c-7-8-19 3-13 11-7-11-36-17-52-20 2-5-1-11-6-13-7-3-15 3-14 10-12-1-24-2-37-2-18-1-35-1-53 1l2-2c7-6-1-15-8-10l-3 3-3-3c-5-7-15 1-10 8l3 3-4 4c-30 5-37 12-37 18 0 5 8 12 23 17 1 5 5 8 10 8 3-1 6-3 7-6v99c-41 9-62 27-61 54-2 1-3 2-4 2l-2 1c-3 1-5 5-4 8 0 3-1 4 1 7 0 2 0 4 2 5v2c0 2 1 3 3 4 2 0 4 0 6-1 1-1 2-2 4-2-1 2 0 4 2 6 1 2 3 4 6 4 0 0 1 0 2-1l1-1c3-2 2-5 1-7v-2c0-1 1-2 1-3 0-2 0-3 1-4v-6c0-7-3-14-10-15h-4c2-21 19-35 53-42v118c0 7 6 12 11 12l65-7v24c-4 0-6 2-6 3 0 2 4 4 9 4s9-2 9-4-2-2-4-3v-25l11-1v20c-3 1-4 2-4 4 0 1 4 4 9 4s9-2 9-4c0-3-3-4-6-4 1-6 1-15 0-21l67-7c6 1 11-4 12-10 3-30 4-62 6-93 10 3 18 9 23 18-2 1-3 3-4 5-2 3-3 6-3 9 0 2 0 4 1 6 1 3 1 6 0 9-2 5-1 9 4 9 4-1 7-5 8-9v-3c2 2 4 3 6 4 1 1 4 1 6 1 2-1 3-3 3-6 2-1 2-3 2-5 1-2 1-4 0-6 0-4 2-6-2-9zm-230-145c-2-5-7-7-12-6-1 1-3 2-4 4-7-3-10-6-10-7 0-14 91-13 99-13 23 1 47 3 70 8 22 5 27 10 27 12s-4 5-15 8l-13-17c-1-1-2-2-4-2h-127c-7 0-11 6-11 13zm172 215c0 1-2 2-3 2l-109 11-29 3c-12 1-18-3-19-11 0-73-4-148-4-222 0-2 2-3 3-3h126l2 3-4 32c-1 8 4 15 11 16 11 1 22 2 33 4l4 4-11 161zm-122-152l-3 6c-2 5 6 8 8 3l3-6 6 2c5 2 8-5 3-8l-6-2 2-6c2-5-6-8-8-3l-2 6-6-2c-5-3-9 5-4 7l7 3zm47-5l6 2-2 7c-2 5 5 8 7 3l3-6 6 2c5 2 8-6 3-8l-6-2 2-6c2-5-5-8-7-3l-3 6-6-3c-5-2-8 6-3 8zm66 85h-135c-4 0-4 7 0 7h135c5 0 5-7 0-7zm0 19h-135c-4 0-4 6 0 6h135c5 0 5-6 0-6zm-69 15h-65c-5 0-5 6 0 6h65c4 0 4-6 0-6zm-126-157l-3 3-3-3c-6-6-15 2-10 8l3 3-3 3c-7 6 1 15 8 10l3-3 3 3c5 7 15-1 10-8l-3-3 3-3c6-5-2-15-8-10zm196 181c-1 0-2-1-2-1l-2-1h-2l-2-1s-1 0-1-1c0 0-1 0-1-1v-1c1 0 1-1 1-1h5l1 1h2l1-1c-1-1-2-2-3-2-1-1-2-1-4-1h-3c-1 0-2 0-2 1l-2 2v5l1 1c1 1 1 1 2 1l2 1 2 1h2l1 1v1c0 1 0 2-1 2 0 1-1 1-2 1h-4l-1-1h-2l-1 2c1 1 1 1 2 1l2 1h4c1 0 2-1 3-1s2-1 3-2c1 0 1-1 2-2v-2-2c-1 0-1-1-1-1zm-22 4v2c0 1 0 1-1 2 0 0 0 1-1 1h-4v3h3c2 0 3 0 4-1 1 0 2-1 2-2 1 0 1-1 2-2v-18l-4-1-1 16zm-99-95l8-8 9 8c2 1 5 1 7 0l8-8 9 8c2 1 5 1 7 0l8-8 9 8c2 1 4 1 6 0l8-8 9 8c4 4 10-3 6-7l-11-10c-2-2-5-2-7 0l-8 7-8-7c-2-2-5-2-7 0l-9 7-8-7c-2-2-5-2-7 0l-9 7-8-7c-2-2-5-2-7 0l-11 9c-5 5 2 11 6 8zm-734 57c-2-16-15-28-31-29 6-9 7-20 3-30s-14-17-25-19c5-7 5-17 0-24-7-8-17-13-27-11 5-12 2-26-8-35-13-16-31-27-51-33-4-1 0 4 3 11 1 7-2 13-6 17-8 9-10 17-4 25-10 2-19 8-25 17-7 10-7 23-2 34-11 1-20 8-24 18-5 10-3 22 4 31-24 5-34 18-32 38s15 26 37 23c21-5 44-5 66-1 31 4 62 4 93 0 18-3 31-13 29-32zm-173-58c0-14 9-31 25-31 13 0 24 14 24 31 0 16-11 31-24 31-14 0-25-15-25-31zm97 52c-25 18-49 20-73-1-7-7-7-9 1-11h71c13 2 2 12 1 12zm2-23c-16 0-24-17-24-30 0-17 10-31 24-31 13 0 24 14 24 31 0 13-9 30-24 30zm-1-48c6 0 12 8 12 18s-6 19-12 19c-7 0-12-9-12-19s5-18 12-18zm-74-1c7 0 12 8 12 19 0 10-5 18-12 18-6 0-12-8-12-18 0-11 6-19 12-19zm-331 131l-29-11c7-37-18-72-55-79-27-5-54 6-69 29l-14-16c-3-3-6-4-10-3l-21 4c3-38-24-71-62-75-27-2-53 12-66 36l-29-10c-14-10-23 16-7 18l29 10c-7 37 18 73 55 80 30 6 61-10 74-39l25-4 17 19c-9 36 13 74 49 83 31 8 63-6 77-34l29 11c12 4 19-15 7-19zm-220-68c-9 26-36 39-62 31-25-9-38-37-30-62 9-25 36-39 62-30 25 8 39 36 30 61zm157 9l-18 15-37-23c19-9 40-5 55 8zm-65-1l32 21-47 4c2-10 7-18 15-25zm15 81c-19-7-31-24-32-44l50-5-20 24c-5 6 3 14 9 8 8-8 16-20 24-29l11 23c3 7 14 2 11-5l-9-18 9 4c13 0 10-9 5-11l-14-7 13-11c25 39-13 87-57 71zm713-351h283c9 0 17-7 17-17V3c0-9-8-17-17-17h-283c-9 0-17 8-17 17v167c0 10 8 17 17 17zm288-17c0 3-2 6-5 6h-283c-3 0-5-3-5-6V18h293v152zM3344-1h57c6-1 6 8 0 8h-57c-6 0-6-8 0-8zm-155 0h142c6 0 6 8 0 8h-142c-5 0-5-7 0-8zm-17 1l3 3-3 3V0zm-6 0v6l-3-3 3-3zm-15 3c0 3-2 5-5 5s-5-2-5-5c0-6 10-7 10 0zm-15 0c0 3-2 5-5 5-2 0-5-2-5-5 1-6 10-7 10 0zm-14 0c0 3-3 5-5 5-3 0-5-2-5-5 0-6 10-7 10 0zm86 149h101c34 0 44-47 13-62-4-9-13-16-23-18-6-22-29-35-52-28-11 3-21 11-26 22-14 2-26 12-29 26-27 18-15 59 16 60zm-8-54c1-15 13-23 28-23 5-17 23-27 40-22 12 4 21 15 23 28 11 0 21 5 24 17 25 8 19 44-6 45h-101c-25-1-30-35-8-45zm30 30c16-13 41-13 57 0 3 4 9-1 5-5-18-16-49-16-68 0-3 4 3 9 6 5zm51-27c4 0 7-3 7-7s-3-7-7-7-7 3-7 7 3 7 7 7zm-45 0c4 0 7-3 7-7s-3-7-7-7-7 3-7 7 3 7 7 7zm554 28c8 0 15 6 15 14s-7 15-15 15-15-7-15-15 7-14 15-14zm81-65c-26 0-47 21-47 47s21 47 47 47 47-21 47-47-21-47-47-47zm22 55h-44c-11 0-11-16 0-16h44c10 0 10 16 0 16zm-144-10c-4 3-4 8 0 11 3 3 8 3 11 0 14-14 36-18 53-9 0-6 1-11 3-17-24-9-50-3-67 15zm95-49c-42-22-93-15-127 18-10 8 5 22 12 11 26-26 66-33 100-18 4-4 9-8 15-11zm-145 0c49-49 127-51 180-6 5 1 11 2 17 5 3-3 3-9 0-12-57-57-152-54-209 2-7 7 4 19 12 11zm-898-13l28 20-20 18 29-1 1 30 20-27 68 16-58-41 6-83-34 69-40-1zm63-28l-4 47 30 21-35-8-9 13V76h-15l10-9-15-12 20 1 18-37zm31 43c1 0 1 1 1 2v11l12 8 2-68c0-5-5-10-10-10h-21l-1 15c1-1 16 0 18 0 1 0 2 0 2 1v7c0 1-1 2-2 2h-17l-2 6 19 1c1 0 1 0 1 1v17c0 1 0 2-1 2l-21-1v5l2 1h18zm-91-26v6h7v-7s0-1 1-1l18 1c1 0 1 0 1 1v7h7v-7c0-1 0-1 1-1h4l14-31h-35l-10 13-5 5-2 6c0 1-1 2-1 1h-3l-4 5h6c1 0 1 1 1 2zm29-21c1 0 2 0 2 1l3 6c0 1 0 2-1 2l-16 7c-1 0-2 0-2-1l-3-6c0-1 0-2 1-2 5-2 11-5 16-7zm-292 148l192-21 7-12-90 10c-1 0-2-1-2-1l-2-17c0-1 1-2 2-2l104-11 4-8-7-1-1-1 3-17c0-1 1-1 2-1l10 2-1-9-6-2c-1 0-2-1-1-2l4-16c0-1 1-2 2-1l4 1 4-7c-1 0-1 0-1-1l-2-17c0-1 0-1 1-2h5l1-8-6-1c-1 0-1-1-1-2l1-6c0-1 1-2 1-2l10 2 10-16-262 29c-6 1-10 6-9 11l13 120c0 6 6 10 11 9zm-8-64l-2-17c0-1 1-2 1-2l31-3c1 0 1 0 2 1l1 17c0 1 0 1-1 2l-30 3c-1 0-2 0-2-1zm3 27l-2-17c0-1 1-2 1-2l47-5c1 0 2 1 2 1l2 17c0 1-1 2-2 2l-46 5c-1 0-2-1-2-1zm145-69l-17 2c-1 0-2-1-2-2l-2-17 1-1 18-2s1 0 1 1l2 17c0 1 0 2-1 2zm14 5c1 0 1 0 1 1l2 17c0 1 0 2-1 2l-17 2c-1 0-2-1-2-2l-2-17s1-1 2-1l17-2zm-27 3c1 0 1 0 2 1l1 17c1 1 0 1-1 2l-17 1c-1 1-1 0-2-1l-1-17c0-1 0-2 1-2l17-1zm-31-4c-1 1-2 0-2-1l-2-17s1-1 2-1l17-2c1 0 1 0 1 1l2 17c0 1 0 1-1 2l-17 1zm4 7c1 0 2 0 2 1l2 17c1 1 0 1-1 2l-17 1c-1 1-1 0-2-1l-1-17c-1 0 0-1 1-1l16-2zm-6 28s1 0 1 1l2 17c0 1 0 1-1 1l-17 2c-1 0-2 0-2-1l-2-17c0-1 1-1 1-1l18-2zm-35-4c-1 0-1 0-1-1l-2-17c0-1 0-2 1-2l17-2c1 0 2 1 2 2l2 17-1 1-18 2zm8 7c1-1 2 0 2 1l2 17-1 1-18 2s-1 0-1-1l-2-17c0-1 0-1 1-2l17-1zm-34-4c-1 0-2 0-2-1l-1-17c0-1 0-2 1-2l17-2c1 0 2 1 2 2l2 17-1 1-18 2zm-33 57c-1 0-2 0-2-1l-2-17c0-1 1-2 1-2l27-3c1 0 2 1 2 2l2 17s0 1-1 1l-27 3zm36-4c-1 0-2 0-2-1l-2-17c0-1 1-2 1-2l27-3c1 0 2 1 2 2l2 16c0 1 0 2-1 2l-27 3zm36-4c-1 0-2 0-2-1l-2-17c0-1 1-2 1-2l27-3c1 0 2 1 2 2l3 17c0 1 0 1-1 1l-28 3zm51-31l-17 2c-1 0-2-1-2-1l-2-17c0-1 0-2 1-2l17-2c1 0 2 1 2 1l2 17c0 1-1 2-1 2zm9-1c-1 0-2-1-2-1l-2-17c0-1 1-2 2-2l17-2 1 1v1l2 16c0 1 0 2-1 2l-17 2zm26-3c-1 0-1 0-1-1l-2-18s0-1 1-1l17-2c1 0 2 0 2 1l2 17c0 1-1 2-2 2l-17 2zm4-46c0-1 0-2 1-2l17-2c1 0 1 1 2 2l1 16c1 1 0 1-1 2l-17 1c-1 1-1 0-1-1l-2-16zm38 43c0 1-1 1-2 1l-17-4s-1-1-1-2l4-16c0-1 1-1 2-1l17 4 1 1-4 17zm5-54c-1 0-2 0-2-1l-6-16c-1 0 0-1 0-2h1l16-6s1 0 1 1l7 16-1 1c0 1-14 6-16 7zm-8-38l17-2 1 1 1 7c0 1 0 2-1 2l-17 2c-1 0-2-1-2-1l-1-7c0-1 1-2 2-2zm14 48c1 0 1 1 1 2l-8 15c0 1-1 1-2 1l-15-8c-1 0-1-1-1-2l8-15c0-1 1-1 2-1 0 0 13 7 15 8zm-19-29l2 17-1 1-18 2s-1 0-1-1l-2-17c0-1 0-2 1-2l17-2c1 0 2 1 2 1v1zm-25-16l17-2s1 1 1 2l1 7s0 1-1 1l-17 2c-1 0-2 0-2-1l-1-7c0-1 1-2 2-2zm0 35c0 1 0 2-1 2l-17 2c-1 0-1-1-2-2l-1-17c-1 0 0-1 1-1l17-2c1 0 1 0 2 1l1 17zm-30-32l17-1c1-1 1 0 2 1v7c0 1 0 1-1 1l-17 2h-2c0-1-1-7-1-8s1-1 1-2h1zm-30 4l17-2c1 0 1 0 1 1l1 7c0 1 0 2-1 2l-17 2c-1 0-2-1-2-2 0-2 0-5-1-7 0-1 1-1 2-1zm-30 3l17-2c1 0 1 1 1 1l1 7c0 1 0 2-1 2l-17 2c-1 0-2-1-2-1l-1-7c0-1 1-2 2-2zm8 16c1 0 1 1 1 1l2 17c0 1 0 2-1 2l-17 2c-1 0-1-1-2-1l-1-17c-1-1 0-2 0-2s16-2 18-2zm-21-15c1 0 1 1 2 2v7c1 1 0 1-1 1l-17 2c-1 1-2 0-2 0l-1-8c0-1 1-2 2-2l17-2zm-5 18s1 0 1 1l2 17c0 1 0 2-1 2l-17 2c-1 0-2-1-2-2l-2-16c0-1 0-2 1-2 1-1 15-2 18-2zm-25-14c1 0 1 0 1 1l1 7c0 1 0 2-1 2l-17 2c-1 0-2-1-2-1v-7c-1-1 0-2 0-2l18-2zm-19 19l17-2c1 0 2 0 2 1l2 17c0 1-1 1-2 1l-17 2c-1 0-1 0-1-1l-2-17c0-1 0-1 1-1zm-29-6l-1-7s1-1 2-1l17-2c1 0 1 0 1 1l1 7c0 1 0 2-1 2l-17 2c-1 0-2-1-2-1v-1zm3 8l17-1c1-1 1 0 1 1l2 17s0 1-1 1l-17 2c-1 0-2 0-2-1l-2-17c0-1 1-1 2-2zm258 9l4 2c1 0 1 1 1 2-2 5-5 11-7 16 0 0-1 1-2 1-1-1-2-1-2-2v10l-5 17s-1 1-2 1l-4-2-4 6h18c1 0 1 1 1 1v17c0 1 0 2-1 2l-32-1-7 11 150 4c6 0 11-5 11-10l1-34-12-2-3 11c-1 1-1 1-2 1-8-3-18-5-26-8-1 0-1-1-1-2 0 0 2-8 3-9l-6-1-2 1v14s0 1-1 1h-9l-5 6h14c1 0 2 1 2 2v17s-1 1-2 1l-27-1c-1 0-1 0-1-1v-17c0-1 0-1 1-1h3v-7h-19c-1 0-2-1-2-1V90h-7l1 15c0 1-1 2-1 2-6 0-12 0-18 1 0 0-1-1-1-2 0-5-1-11-1-16 0-1 0-2 1-2 4 0 9-1 13-1l4-4-10-13c-1-1-1-1 0-2 4-4 9-7 13-11l-1-1c-4-2-7-3-11-6l2 4h-5l-4 8zm78 54l27-1c1 0 2 1 2 1 0 6 0 12 1 17 0 1-1 2-2 2-8 0-18 1-27 1 0 0-1 0-1-1 0-6-1-12-1-17 0-2 1-2 1-2zm-73-1c0-1 0-2 1-2l27 1c1 0 1 1 1 2v17s0 1-1 1l-27-1c-1 0-1 0-1-1v-17zm-433 581h-34c-2 0-3 2-3 4 0 1 1 3 3 3h34c2 0 4-1 4-3s-1-4-3-4h-1zm-17 195c5 0 9 4 9 9 0 6-4 10-9 10s-10-4-10-10c0-5 5-9 10-9zm43-216h-87c-12 0-21 10-21 22v50h34l-13-25c-2-5 5-9 8-4l14 29h52c2-2 4-1 6 0h29v-50c0-12-10-22-22-22zm-108 183v48c0 12 9 22 21 22h87c12 0 22-10 22-22v-50h-12c0 3-4 7-7 4l-4-4-37 1-8 17c-3 5-10 1-8-3l7-14-61 1zm14-161c0-4 3-8 7-8h87c4 0 8 4 8 8v13h-102v-13zm102 209c0 4-3 8-7 8h-88c-4 0-7-4-7-8v-19h102v19zm1026-16h-6c1-2 1-4 1-6v-46h-10v46c0 3-3 6-6 6h-273c-3 0-5-3-5-6v-41h-11v41c0 2 0 4 1 5h-5c-9 0-17 8-17 17v5c0 9 8 16 17 16h314c9 0 16-7 16-16v-5c0-9-7-16-16-16zm-5-143v-24c0-9-7-16-16-17h-273c-9 0-16 8-16 17v24h11v-24c0-3 2-5 5-5h273c3 0 6 2 6 5v24h10zm10 164c0 3-2 5-5 5h-314c-3 0-6-2-6-5v-5c0-3 3-5 6-5h314c3 0 5 2 5 5v5zm-169-183h26c3 0 3-5 0-5h-26c-4 0-4 5 0 5zm-7-3c0 3-2 4-4 4-3 0-4-1-4-4 0-5 8-5 8 0zm146 8h-265v14h9c-3-4 2-9 6-6l7 6h47l1-3c1-6 10-4 9 1l-1 2h187v-14zm-265 110v26h265v-31l-86 2 31 15c5 2 1 11-5 8l-45-23-130 2-16 19c-3 5-11-1-6-6l10-12h-18zm-609 26c-5 3 4 6 4 2-1-2-3-2-4-2zm43 17c-8 2-9 11-2 14 4 1 14-1 15-5 0-6-8-10-13-9zm232-139c-7 0-14 0-18-1l-6-1c-3-2-3-6-4-10-1-2-3-3-5-4-4-1-3-5 1-6 4 0 8-1 12-2 2-1 4-4 3-6 0-2-2-4-4-4-3-1-6 1-9 1-11 1-23-2-23-15 0-3 3-4 2-7s-5-2-5-4c-1-4 13-19 15-22 3-3 6-4 5-8-1-2-4-3-6-2-5 1-8 11-10 15-9 12-22 14-26 7-1-2-1-4-3-5-2 0-3 2-4 2-6 1-13-3-13-15 0-3 3-18-4-16s3 24-5 26c-4 1-5-6-9-5-3 1-4 4-6 0-3-3-4-15-10-14-6 2 4 13 5 15 2 3 2 11-2 11-3 0-3-6-7-5-6 2 4 6 3 7-1 2-5-1-6 0-5 2 0 10 2 14 3 6 2 10-7 11h-1c-2 0-6-3-6 1 0 3 4 3 5 5 6 7 6 13-5 12-3-1-5-1-8-2l-59-42c-3-2-16-12-25-7s-6 21-4 29c3 11 9 20 17 28 7 7 16 12 26 13 5 0 10 0 15-2 12-4 10-4 21-10l2-2c6 1 18 4 20 9 1 2 6 5 6 11h16l7-42 18 3-7 39h19c-2-4-3-9-2-15 6-26 45-23 53 1l-16 6c-2-10-16-14-19-4v1c-1 4 2 8 7 11h64zm-158 105l-3 5c-1 3-24 50-27 55-1 3-20 21-13 28 8 4 17-22 17-24 3-5 6-10 9-14 6-7 19-34 27-50h-10zm-50-121c-11-4-21-13-27-24-2-6-8-24-3-28 2-1 9 3 14 7l36 26 14 9c-11 8-19 13-34 10zm175-83c-6 3 6 7 3 1 0-1-2-2-3-1zm-86 203c-2 3-3 6-2 9 1 2 2 1 4 0 1 6 3 12 4 17l5 1h4l9-15-22-4c2-2 3-4 4-6l21 3c1-2 2-4 2-5h-29zm7 28c-3 1-9 16-3 16 5 1 10-10 6-15-1-2-2-2-3-1zm69-184l1 1c1 1 2 1 3 0 7-5 14-9 22-12 3 2 6 1 8-2 1-2 1-6-2-7-3-2-6-1-8 2 0 0-1 1-1 2-8 3-15 7-22 12-1 1-1 3-1 4zm-126-32v-2c-1-3-5-5-8-4s-4 4-3 7 4 5 7 4h1c6 4 12 10 18 16 0 1 2 1 3 1l1-1c1-1 1-3 0-4-6-6-12-12-19-17zm-73 190c-13 12-32 28-35 30-2 1-8 5-6 9 1 3 9-3 10-4 5-3 22-19 39-35h-8zm447-111l-2-2h-3l-7 7h9l3-3v-2zm-25 5l-7-7c-1-1-2-1-2 0-1 0-2 2-2 2-1 1-1 2 0 2l2 3h9zm-839-33c-2-3-7-3-9 0l-17 33h17l-1-5v-9h12l-1 9v5h17l-18-33zm523-272l-2-2s-2-1-2 0l-14 13-14-13c0-1-1-1-2 0 0 0-1 2-2 2v2l14 14-14 13v2l2 2c1 1 2 1 2 0 5-4 10-9 14-13l14 13c0 1 1 1 2 0l2-2c1 0 0-1 0-2l-13-13 13-14c1-1 1-1 0-2zm-442-232l-2-2c-1-1-2-1-2 0l-14 13-14-14h-2c0 1-1 2-2 3-1 0 0 1 0 2l14 14-14 13v2c1 0 2 1 2 2 1 1 2 1 2 0l14-14 14 14c0 1 1 1 2 0l2-2c1-1 0-1 0-2l-13-14 13-13v-2zm1349-65l-2-2c-1-1-2-1-3 0l-13 13-14-14h-2c-1 1-2 2-2 3-1 0-1 1 0 2l13 14-13 13c-1 0-1 1 0 2l2 2c0 1 1 1 2 0 4-5 9-9 14-14l13 14c1 1 2 1 2 0 1 0 2-1 2-2 1-1 1-1 0-2l-13-14 14-13v-2zm328 444l-2-2c-1-1-2-1-2 0l-14 13-14-14h-2c0 1-1 2-2 3-1 0 0 1 0 2l14 13-14 14c-1 0-1 1 0 2 1 0 2 1 2 2h2l14-14 14 14h2c0-1 1-2 2-2v-2l-13-14 13-14v-1zM2536 260c-2-4-7-4-9 0l-32 58c-2 3 1 8 5 8h63c4 0 6-5 4-8l-31-58zm1 58h-11v-9h11v9zm0-30l-2 18h-7l-2-18v-9h11v9zm944 272c-3-4-8-4-11 0l-36 67c-2 4 1 9 5 9h73c4 0 7-5 5-9l-36-67zm1 67h-13v-11h13v11zm0-35l-2 21h-9l-2-21v-10h13v10zM216 97h156c12 0 21-9 21-21 1-27 0-55 0-82 0-11-9-20-20-20H216c-12 0-21 9-21 20v82c0 11 9 21 21 21zm101-59l20-32h16v31h6v9h-6v13h-12V47h-24v-9zM293 5c14 0 19 13 19 27 0 16-6 28-20 28-13 0-20-13-20-28s7-27 21-27zm-67 33l20-32h15v31h6v9h-6v13h-12V47h-23v-9zm66 13c5 0 8-6 8-18s-3-18-8-18-7 5-7 18c0 12 3 18 7 18zm-43-26V15c-1 4-3 7-5 10l-7 12h12V25zm92 0V15c-2 4-3 7-5 10l-7 12h12V25zm1064 532V340h-217v217h217zm-81-92c-1-31 45-36 58-10l-16 10c-4-11-21-13-22-1-2 19 44 11 44 48 0 33-54 39-71 7l17-10c8 17 34 16 34 3 0-17-44-12-44-47zm-62 46c8 15 24 15 24-2v-69h21v69c1 16-10 29-25 31s-30-4-37-19l17-10zm423 367v-9l-16 1v20c0 30 12 41 42 41v-12c-29 1-26-18-26-41zm0-131c0-23-3-41 26-40v-12h-2c-28-1-40 13-40 40v12h16zm189-12c0-27-12-41-40-40h-2v12c29-1 27 17 27 40h14c1-5 1-9 1-12zm-16 131c0 11 1 21 0 31 0 17-10 22-26 21v12c29 0 42-10 42-40v-24h-16zm-128 2c1 12 5 20 5 20h-18v-19h-16v19c0 9 7 17 15 17h31s46 40 87-1c10-11 16-24 17-38l-51 1-1 8h-15l-1-8-53 1zm101-121l-26-27h-89c-8 0-15 8-15 17v10h16v-10h78v10h36zm-51 134h23v20h-23v-20zm205-439h-2c-2-2-3-3-5-4s-4-1-5-1c-6-14-17-23-31-26l4-61c0-1-1-2-1-2l-32-42c7-1 15-4 21-8-2 7 7 13 13 8l5-4 4 5c5 6 14 2 14-5 0-4-3-7-6-10l5-5c9-6-2-19-10-12l-5 4-4-5c-7-8-19 3-13 11-7-11-36-17-52-20 2-5-1-11-6-13-7-3-15 3-14 10-12-1-24-2-37-2-18-1-35-1-53 1l2-2c7-6-1-15-8-10l-3 3-3-3c-5-7-15 1-10 8l3 3-4 4c-30 5-37 12-37 18 0 5 8 12 23 17 1 5 5 8 10 8 3-1 6-3 7-6v99c-41 9-62 27-61 54-2 1-3 2-4 2l-2 1c-3 1-5 5-4 8 0 3-1 4 1 7 0 2 0 4 2 5v2c0 2 2 3 3 4 2 0 4 0 6-1 1-1 2-2 4-2-1 2 1 4 2 6s3 4 6 4c0 0 1 0 2-1l1-1c3-2 2-5 1-7v-2c0-1 1-2 1-3 0-2 0-3 1-4v-6c0-7-3-14-10-15h-4c2-21 19-35 53-42v118c0 7 6 12 12 12l64-7v24c-4 0-6 2-6 3 0 2 4 4 9 4s9-2 9-4-2-2-4-3v-25l11-1v20c-3 1-4 2-4 4 0 1 4 4 9 4s9-2 9-4c0-3-3-4-6-4 1-6 1-15 0-21l67-7c6 1 11-4 12-10 3-30 4-62 6-93 10 3 18 9 23 18-2 1-3 3-4 5-2 3-3 6-3 9 0 2 0 4 1 6 1 3 1 6 0 9-2 5-1 9 4 9 4-1 7-5 8-9 0-1 0-2 1-3 1 2 3 3 5 4s4 1 6 1c2-1 3-3 3-6 2-1 2-3 2-5 1-2 1-4 0-6 0-4 2-6-2-9zm-230-145c-2-5-7-7-12-6-1 1-3 2-4 4-7-3-10-6-10-7 0-14 91-13 99-13 23 1 47 3 70 8 22 5 27 10 27 12s-4 5-15 8l-13-17c-1-1-2-2-4-2h-127c-7 0-11 6-11 13zm172 215c0 1-2 2-3 2l-109 11-29 3c-12 1-18-3-19-11 0-73-4-148-4-222 0-2 2-3 3-3h126l2 3-4 32c-1 8 4 15 12 16 10 1 21 2 32 4l4 4-11 161zm-122-152l-3 6c-2 5 6 8 8 3l3-6 6 2c5 2 8-5 3-8l-6-2 2-6c2-5-6-8-8-3l-2 6-6-2c-5-3-9 5-3 7l6 3zm47-5l6 2-2 7c-2 5 5 8 7 3l3-6 6 2c5 2 8-6 3-8l-6-2 2-6c2-5-5-8-7-3l-3 6-6-3c-5-2-8 6-3 8zm66 85h-135c-4 0-4 7 0 7h135c5 0 5-7 0-7zm0 19h-135c-4 0-4 6 0 6h135c5 0 5-6 0-6zm-69 15h-65c-5 0-5 6 0 6h65c4 0 4-6 0-6zm-126-157l-3 3-3-3c-6-6-15 2-10 8l3 3-3 3c-7 6 1 15 8 10l3-3 3 3c5 7 15-1 10-8l-3-3 3-3c6-5-2-15-8-10zm196 181c-1 0-2-1-2-1l-2-1h-2l-2-1s-1 0-1-1c0 0-1 0-1-1v-1c1 0 1-1 1-1h5l1 1h2l1-1c-1-1-2-2-3-2-1-1-2-1-4-1h-3c-1 0-2 0-2 1l-2 2v5l1 1c1 1 1 1 2 1l2 1 2 1h2l1 1s1 1 0 1c1 1 0 2-1 2 0 1-1 1-2 1h-4l-1-1h-1l-2 2c1 1 1 1 2 1l2 1h4c1 0 2-1 3-1s2-1 3-2c1 0 1-1 2-2v-2-2c-1 0-1-1-1-1zm-22 4v2c0 1 0 1-1 2 0 0 0 1-1 1h-4v3h3c2 0 3 0 4-1 1 0 2-1 2-2 1 0 1-1 2-2v-18l-4-1-1 16zm-99-95l9-8 8 8c2 1 5 1 7 0l9-8 8 8c2 1 5 1 7 0l8-8 9 8c2 1 4 1 6 0l8-8 9 8c4 4 10-3 6-7l-11-10c-2-2-5-2-7 0l-8 7-8-7c-2-2-5-2-7 0l-9 7-8-7c-2-2-5-2-7 0l-9 7-8-7c-2-2-5-2-7 0l-11 9c-5 5 2 11 6 8zm-734 57c-2-16-15-28-31-29 6-9 7-20 3-30s-14-17-24-19c4-7 4-17-1-24-7-8-17-13-27-11 6-12 2-26-8-35-13-16-31-27-51-33-3-1 0 4 3 11 1 7-2 13-6 17-8 9-10 17-4 25-10 2-19 8-25 17-7 10-7 23-2 34-11 1-20 8-24 18-5 10-3 22 4 31-24 5-34 18-32 38s15 26 37 23c21-5 44-5 66-1 31 4 62 4 93 0 18-3 31-13 29-32zm-173-58c0-14 9-31 25-31 13 0 24 14 24 31 0 16-11 31-24 31-14 0-25-15-25-31zm97 52c-25 18-49 20-73-1-7-7-7-9 1-11h71c13 2 2 12 1 12zm2-23c-16 0-24-17-24-30 0-17 10-31 24-31 13 0 24 14 24 31 0 13-9 30-24 30zm-1-48c6 0 12 8 12 18s-6 19-12 19c-7 0-12-9-12-19s5-18 12-18zm-74-1c7 0 12 8 12 19 0 10-5 18-12 18-6 0-12-8-12-18 0-11 6-19 12-19zM584 517l-29-11c7-37-18-72-55-79-27-5-54 6-69 29l-14-16c-3-3-6-4-10-3l-21 4c3-38-24-71-62-75-27-2-53 12-66 36l-29-10c-14-10-23 16-7 18l29 10c-7 37 18 73 55 80 30 6 61-10 75-39l24-4 17 19c-9 36 13 74 49 83 31 8 63-6 77-34l29 11c12 4 19-15 7-19zm-220-68c-9 26-36 39-62 31-25-9-38-37-30-62 9-25 36-39 62-30 25 8 39 36 30 61zm157 9l-18 15-37-23c19-9 40-5 55 8zm-65-1l32 21-47 4c2-10 7-18 15-25zm15 81c-19-7-31-24-32-44l50-5-20 24c-5 6 3 14 9 8 8-8 16-20 24-29l11 23c3 7 14 2 11-5l-9-18 9 4c13 0 10-9 6-11l-15-7 13-11c25 39-13 87-57 71zm714-351h282c9 0 17-7 17-17V3c0-9-8-17-17-17h-282c-10 0-18 8-18 17v167c0 10 8 17 18 17zm287-17c0 3-2 6-5 6h-282c-4 0-6-3-6-6V18h293v152zM1411-1h57c6-1 6 8 0 8h-57c-6 0-6-8 0-8zm-155 0h142c6 0 6 8 0 8h-142c-5 0-5-7 0-8zm-17 1l3 3-3 3V0zm-6 0v6l-3-3 3-3zm-15 3c0 3-2 5-5 5s-5-2-5-5c0-6 10-7 10 0zm-15 0c0 3-2 5-5 5-2 0-5-2-5-5 1-6 10-7 10 0zm-14 0c0 3-3 5-5 5-3 0-5-2-5-5 0-6 10-7 10 0zm86 149h101c34 0 44-47 13-62-4-9-13-16-23-18-6-22-29-35-52-28-11 3-21 11-26 22-14 2-26 12-29 26-27 18-15 59 16 60zm-8-54c1-15 13-23 28-23 5-17 23-27 40-22 12 4 21 15 23 28 11 0 21 5 24 17 25 8 19 44-6 45h-101c-24-1-30-35-8-45zm30 30c16-13 41-13 57 0 4 4 9-1 5-5-18-16-49-16-67 0-4 4 2 9 5 5zm51-27c4 0 7-3 7-7s-3-7-7-7-7 3-7 7 3 7 7 7zm-45 0c4 0 7-3 7-7s-3-7-7-7-7 3-7 7 3 7 7 7zm554 28c8 0 15 6 15 14s-7 15-15 15-15-7-15-15 7-14 15-14zm81-65c-26 0-47 21-47 47s21 47 47 47 47-21 47-47-21-47-47-47zm22 55h-44c-11 0-11-16 0-16h44c10 0 10 16 0 16zm-144-10c-4 3-4 8 0 11 3 3 8 3 11 0 14-14 36-18 53-9 0-6 1-11 3-17-23-9-50-3-67 15zm95-49c-42-22-93-15-127 18-10 8 5 22 12 11 26-26 66-33 100-18 4-4 9-8 15-11zm-145 0c49-49 127-51 180-6 6 1 11 2 17 5 3-3 3-9 0-12-57-57-152-54-209 2-7 7 4 19 12 11zM868 47l28 20-20 18 29-1 1 30 20-27 68 16-58-41 6-83-34 69-40-1zm63-28l-4 47 30 21-35-8-9 13V76h-15l10-9-15-12 20 1 18-37zm31 43c1 0 2 1 2 2v11l11 8 2-68c0-5-5-10-10-10h-21l-1 15c1-1 16 0 18 0 1 0 2 0 2 1v7c0 1-1 2-2 2h-17l-2 6 19 1c1 0 1 0 1 1v17c0 1 0 2-1 2l-21-1v5l2 1h18zm-91-26v6h7v-7s0-1 1-1l18 1c1 0 1 0 1 1v7h7v-7c0-1 0-1 1-1h4l14-31h-35l-10 13-5 5-2 6c0 1-1 2-1 1h-3l-4 5h6c1 0 1 1 1 2zm29-21c1 0 2 0 2 1l3 6c0 1 0 2-1 2l-16 7c-1 0-2 0-2-1l-3-6c0-1 0-2 1-2 5-2 11-5 16-7zM608 163l192-21 7-12-90 10c-1 0-2-1-2-1l-2-17c0-1 1-2 2-2l104-11 4-8-7-1-1-1 3-17c0-1 1-1 2-1l10 2-1-9-6-2c-1 0-2-1-1-2l4-16c0-1 1-2 2-1l4 1 4-7c-1 0-1 0-1-1l-2-17c0-1 0-1 1-2h5l1-8-6-1c-1 0-1-1-1-2l1-6c0-1 1-2 1-2l10 2 10-16-262 29c-6 1-10 6-9 11l13 120c1 6 6 10 11 9zm-8-64l-2-17c0-1 1-2 1-2l31-3c1 0 1 0 2 1l1 17c0 1 0 1-1 2l-30 3c-1 0-2 0-2-1zm3 27l-2-17c0-1 1-2 1-2l47-5c1 0 2 1 2 1l2 17c0 1-1 2-2 2l-46 5c-1 0-2-1-2-1zm145-69l-17 2c-1 0-2-1-2-2l-2-17 1-1 18-2s1 0 1 1l2 17c0 1 0 2-1 2zm14 5c1 0 1 0 1 1l2 17c0 1 0 2-1 2l-17 2c-1 0-2-1-2-2l-2-17s1-1 2-1l17-2zm-27 3c1 0 1 0 2 1l1 17c1 1 0 1-1 2l-17 1c-1 1-1 0-1-1l-2-17c0-1 0-2 1-2l17-1zm-31-4c-1 1-2 0-2-1l-2-17s1-1 2-1l17-2c1 0 1 0 1 1l2 17c0 1 0 1-1 2l-17 1zm5 7s1 0 1 1l2 17c1 1 0 1-1 2l-17 1c-1 1-1 0-1-1l-2-17s0-1 1-1l17-2zm-7 28s1 0 1 1l2 17c0 1 0 1-1 1l-17 2c-1 0-2 0-2-1l-2-17c0-1 1-1 1-1h1l17-2zm-35-4c-1 0-1 0-1-1l-2-17c0-1 0-2 1-2l17-2c1 0 2 1 2 2l2 17-1 1-18 2zm8 7c1-1 2 0 2 1l2 17-1 1-17 2c-1 0-2 0-2-1l-2-17c0-1 0-1 1-2l17-1zm-34-4c-1 0-2 0-2-1l-1-17c0-1 0-2 1-2l17-2c1 0 2 1 2 2l2 17-1 1-18 2zm-33 57c-1 0-2 0-2-1l-2-17c0-1 1-2 1-2l27-3c1 0 2 1 2 2l2 17s0 1-1 1l-27 3zm36-4c-1 0-2 0-2-1l-2-17c0-1 1-2 1-2l27-3c1 0 2 1 2 2l2 16c0 1 0 2-1 2l-27 3zm36-4c-1 0-2 0-2-1l-2-17c0-1 1-2 1-2l27-3c1 0 2 1 2 2l3 17c0 1 0 1-1 1l-28 3zm51-31l-17 2c-1 0-2-1-2-1l-2-17c0-1 0-2 1-2l17-2c1 0 2 1 2 1l2 17c0 1-1 2-1 2zm9-1c-1 0-2-1-2-1l-2-17c0-1 1-2 2-2l17-2c1 0 1 1 1 1v1l2 16c0 1 0 2-1 2l-17 2zm26-3c-1 0-1 0-1-1l-2-18s0-1 1-1l17-2c1 0 2 0 2 1l2 17c0 1-1 2-2 2l-17 2zm4-46c0-1 0-2 1-2l17-2c1 0 2 1 2 2l2 16c0 1-1 1-2 2l-17 1c-1 1-1 0-1-1l-2-16zm38 43c0 1-1 1-2 1l-17-4s-1-1-1-2l4-16c0-1 1-1 2-1l17 4 1 1-4 17zm5-54c-1 0-2 0-2-1l-6-16c-1 0 0-1 1-2l16-6s1 0 1 1l7 16-1 1c0 1-14 6-16 7zm-8-38l17-2c1 0 1 1 1 1l1 7c0 1 0 2-1 2l-17 2c-1 0-2-1-2-1l-1-7c0-1 1-2 2-2zm14 48c1 0 1 1 1 2l-8 15c0 1-1 1-2 1l-15-8c-1 0-1-1-1-2l8-15c0-1 1-1 2-1 0 0 13 7 15 8zm-19-29l2 17-1 1-17 2c-1 0-2 0-2-1l-2-17c0-1 0-2 1-2l17-2c1 0 2 1 2 1v1zm-25-16l17-2s1 1 1 2l1 7s0 1-1 1l-17 2c-1 0-2 0-2-1l-1-7c0-1 1-2 2-2zm0 35c1 1 0 2-1 2l-17 2c-1 0-1-1-2-2l-1-17c-1 0 0-1 1-1l17-2c1 0 1 0 2 1l1 17zm-30-32l17-1c1-1 1 0 2 1v7c0 1 0 1-1 1l-17 2h-2c0-1-1-7-1-8s1-1 1-2h1zm-30 4l17-2c1 0 1 0 1 1l1 7c0 1 0 2-1 2l-17 2c-1 0-2-1-2-2 0-2 0-5-1-7 0-1 1-1 2-1zm-30 3l17-2c1 0 1 1 1 1l1 7c0 1 0 2-1 2l-17 2c-1 0-2-1-2-1v-7c-1-1 0-2 1-2zm8 16c1 0 1 1 1 1l2 17c0 1 0 2-1 2l-17 2c-1 0-1-1-2-1l-1-17c-1-1 0-2 0-2s16-2 18-2zm-21-15c1 0 2 1 2 2v7c1 1 0 1-1 1l-17 2c-1 1-1 0-2 0l-1-8c0-1 1-2 2-2l17-2zm-5 18s1 0 1 1l2 17c0 1 0 2-1 2l-17 2c-1 0-2-1-2-2l-2-16c0-1 0-2 1-2 1-1 15-2 18-2zm-25-14c1 0 1 0 2 1v7c0 1 0 2-1 2l-17 2c-1 0-2-1-2-1v-7c-1-1 0-2 0-2l18-2zm-19 19l17-2c1 0 2 0 2 1l2 17c0 1-1 1-2 1l-17 2c-1 0-1 0-1-1l-2-17c0-1 0-1 1-1zm-29-6v-7c-1 0 0-1 1-1l17-2c1 0 1 0 1 1l1 7c0 1 0 2-1 2l-17 2c-1 0-2-1-2-1v-1zm3 8l17-1c1-1 1 0 1 1l2 17s0 1-1 1l-17 2c-1 0-2 0-2-1l-2-17c0-1 1-1 2-2zm258 9l4 2c1 0 1 1 1 2-2 5-5 11-7 16 0 0-1 1-2 1-1-1-2-1-2-2v10l-5 17s-1 1-2 1l-4-2-4 6h18c1 0 1 1 1 1v17c0 1 0 2-1 2l-32-1-7 11 151 4c5 0 10-5 10-10l1-34-12-2-3 11c0 1-1 1-2 1-8-3-18-5-26-8-1 0-1-1-1-2 0 0 2-8 3-9l-6-1-2 1v14s0 1-1 1h-9l-5 6h14c1 0 2 1 2 2v17s-1 1-2 1l-27-1c-1 0-1 0-1-1v-17c0-1 0-1 1-1h3v-7h-19c-1 0-2-1-2-1V90h-7l1 15c0 1 0 2-1 2-6 0-12 0-17 1-1 0-2-1-2-2 0-5-1-11-1-16 0-1 0-2 1-2 4 0 9-1 13-1l4-4-10-13c-1-1-1-1 0-2 4-4 9-7 13-11l-1-1c-4-2-7-3-11-6l2 4h-5l-4 8zm78 54l27-1c1 0 2 1 2 1 0 6 0 12 1 17 0 1-1 2-2 2-8 0-18 1-27 1 0 0-1 0-1-1 0-6-1-12-1-17 0-2 1-2 1-2zm-73-1c0-1 0-2 1-2l27 1c1 0 2 1 2 2v17c-1 0-1 1-2 1l-27-1c-1 0-1 0-1-1v-17zM427 696h-34c-4 1-4 6 0 7h34c4 0 5-6 1-7h-1zm-8 204c0 6-4 10-9 10s-10-4-10-10c0-3 2-6 5-7l10-1c2 2 4 5 4 8zm35-225h-88c-12 0-21 10-21 22v50h34l-13-25c-2-5 5-9 8-4l14 29h52c2-2 4-1 6 0h29v-50c0-12-10-22-21-22zm-109 94v36l35-1-20-12c-4-3 0-10 4-7l32 19h13l-18-34-46-1zm0 125v12c0 12 9 22 21 22h88c11 0 21-10 21-22v-15l-14 1v14c0 4-3 8-7 8h-88c-4 0-7-4-7-8v-13l-14 1zm130-90v-32l-32-1-8 33h4l7-10c3-4 10 0 7 5l-4 5h26zM359 697c0-4 3-8 7-8h88c3 0 7 4 7 8v13H359v-13zm42 73l17 34h8l8-33-33-1zm1086 120h-6c1-2 1-4 1-6v-11h-10v11c0 3-3 6-6 6h-272c-4 0-6-3-6-6v-6l-11 1v5c0 2 0 4 1 5h-5c-9 0-17 8-17 17v5c0 9 8 16 17 16h314c9 0 16-7 16-16v-5c0-9-7-16-16-16zm-5-95v-4h-10v4h10zm-294 3v-13h-11v13h11zm294-51v-24c0-9-7-16-16-17h-272c-10 0-17 8-17 17v24h11v-24c0-3 2-5 5-5h273c3 0 6 2 6 5v24h10zm10 164c0 3-2 5-5 5h-314c-3 0-6-2-6-5v-5c0-3 3-5 6-5h314c3 0 5 2 5 5v5zm-169-183h26c3 0 3-5 0-5h-26c-4 0-4 5 0 5zm-7-3c0 3-2 4-4 4-3 0-4-1-4-4 0-5 8-5 8 0zm146 8h-265v14h9c-3-4 2-9 6-6l7 6h47l1-3c1-6 10-4 9 1l-1 2h187v-14zm-265 53v12l33-1c9-4 18-7 24-9l-1-1-56-1zm265 9v-4l-173-4-1 1-11 2 14 7 171-2zm-198 2zm-637 92c-4 3-3 9 2 11 4 1 14-1 15-5 0-3-2-5-4-7l-13 1zm236-142c-7 0-14 0-18-1l-6-1c-3-2-3-6-4-10-1-2-3-3-5-4-4-1-3-5 1-6 4 0 8-1 12-2 2-1 4-4 3-6 0-2-2-4-4-4-3-1-6 1-9 1-10 1-23-2-23-15 0-3 3-4 2-7s-5-2-5-4c-1-4 13-19 15-22 3-3 6-4 5-8-1-2-4-3-6-2-5 1-8 11-10 15-9 12-22 14-26 7-1-2-1-4-3-5-2 0-3 2-4 2-6 1-13-3-13-15 0-3 3-18-4-16s3 24-5 26c-4 1-5-6-9-5-3 1-4 4-6 0-3-3-4-15-10-14-6 2 4 13 5 15 2 3 2 11-2 11-3 0-3-6-7-5-6 2 4 6 3 7-1 2-5-1-6 0-5 2 0 10 2 14 3 6 2 10-7 11h-1c-1 0-6-3-6 1 0 3 4 3 5 5 6 7 6 13-5 12-3-1-5-1-8-2l-59-42c-3-2-16-12-25-7s-6 21-4 29c3 11 9 20 17 28 7 7 16 12 26 13 5 0 10 0 15-2 12-4 10-4 21-10l2-2c6 1 18 4 20 9 1 2 6 5 6 11h16l7-42 18 3-7 39h19c-2-4-3-9-1-15 5-26 44-23 52 1l-16 6c-2-10-16-14-19-4v1c-1 4 2 8 7 11h64zm-113 30c-4 8-13 13-22 12h-2l2 1c3 1 6 4 5 11h56c-12-2-23-11-28-23l1-1h-12zm-63 110c-5 12-11 23-12 25-1 3-20 21-13 28 8 4 17-22 17-24 3-5 6-10 9-14 3-3 6-8 9-15h-10zm126-86l-2-2c-2 1-4 1-6 2h8zm-33-23c7 10 24 11 25 1v-1h-25zm44 1v4c-1 3-3 7-5 10 4 2 10 4 18 8l46-1-1-4 3-1c2-1 4-1 6-2h1c7-5 13-9 16-13h-16c-7 4-15 6-19 7-12 2-25 0-34-8h-15zm-169-48c-11-4-21-13-26-24-3-6-9-24-4-28 2-1 10 3 14 7l36 26 14 9c-11 8-19 13-34 10zm175-83c-6 3 6 7 3 1 0-1-2-2-3-1zm-84 238c-1 5-1 9 2 9s6-4 7-9h-9zm74-191l1 1c1 1 2 1 3 0 7-5 14-9 22-12 3 2 6 1 8-2 1-2 1-6-2-7-3-2-6-1-8 2 0 0 0 1-1 2-8 3-15 7-22 12-1 1-1 3-1 4zm-126-32v-2c-1-3-5-5-8-4s-4 4-3 7 4 5 7 4h1c6 4 12 10 18 16 0 1 2 1 3 1l1-1c1-1 1-3 0-4-6-6-12-12-19-17zm10 126c1 0 4-3 6-5-3-2-5-5-7-8h-2l-1 1-7 8c-5 4-11 10-18 17h12c6-5 12-9 17-13zM580 889c-1 1-1 2 0 3 1 3 7-1 9-3h-9zm488-147l-2-2h-3l-7 7h9l3-3v-2zm-25 5l-7-7c-1-1-1-1-2 0-1 0-2 2-2 2-1 1-1 2 0 2l2 3h9zm-839-33c-2-3-7-3-9 0l-17 33h17l-1-5v-9h12l-1 9v5h17l-18-33zm-37 52l-3 6c-2 4 0 8 4 8h63c4 0 7-4 5-8l-3-5h-28v5h-10v-5l-28-1zm560-324l-2-2s-1-1-2 0l-14 13-13-13c-1-1-2-1-3 0 0 0-1 2-2 2v2l14 14-14 13v2l2 2c1 1 2 1 2 0 5-4 10-9 14-13l14 13c0 1 1 1 2 0l2-2c1 0 1-1 0-2l-13-13 13-14c1-1 1-1 0-2zM285 210l-2-2c-1-1-2-1-2 0l-14 13-14-14h-2c0 1-1 2-2 3-1 0 0 1 0 2l14 14-14 13v2c1 0 2 1 2 2 1 1 2 1 2 0l14-14 14 14c0 1 1 1 2 0l2-2c1-1 0-1 0-2l-13-14 13-13c1-1 1-2 0-2zm1349-65l-2-2c-1-1-2-1-2 0l-14 13-14-14h-2c-1 1-2 2-2 3-1 0-1 1 0 2l13 14-13 13c-1 0-1 1 0 2l2 2c0 1 1 1 2 0 4-5 9-9 14-14l13 14c1 1 2 1 2 0 1 0 2-1 2-2 1-1 1-1 0-2l-13-14 14-13v-2zm328 444l-2-2c-1-1-2-1-2 0l-14 13-14-14h-2c0 1-1 2-2 3-1 0 0 1 0 2l14 13-14 14s-1 1 0 2c1 0 2 1 2 2h2l14-14 14 14h2c0-1 1-2 2-2 1-1 0-2 0-2l-13-14 13-14v-1zM603 260c-2-4-7-4-9 0l-32 58c-2 3 1 8 5 8h63c4 0 6-5 4-8l-31-58zm1 58h-11v-9h11v9zm0-30l-2 18h-7l-2-18v-9h11v9zm-852 590c0-22 4-53-17-65 21-12 17-44 17-66 0-23-3-41 26-40v-12h-2c-28-1-40 13-40 40v47c1 14-9 25-23 25v12c14-1 24 11 23 24v47c0 30 12 41 42 41v-12c-29 1-26-18-26-41zm189-143c0-27-11-41-40-40h-2v12c29-1 27 17 27 40 0 22-6 53 16 66-9 5-14 13-15 24-3 18-1 41-2 60 0 17-10 22-26 21v12c29 0 42-10 42-40v-48c0-13 9-25 23-24v-11c-7 0-12-4-18-8-9-7-5-53-5-64zm-33 91v-68l-36-38h-89c-8 0-15 8-15 17v151c0 9 7 17 15 17h31s46 40 87-1c20-21 23-54 7-78zM52 442h-2c-2-2-3-3-5-4s-4-1-5-1c-6-14-17-23-31-26l4-61c0-1 0-2-1-2l-32-42c7-1 15-4 21-8-2 7 7 13 13 8l5-4 4 5c5 6 14 2 14-5 0-4-3-7-6-10l5-5c9-6-2-19-10-12l-5 4-4-5c-7-8-19 3-13 11-7-11-36-17-52-20 2-5-1-11-6-13-7-3-15 3-14 10-12-1-24-2-37-2-18-1-35-1-53 1l2-2c7-6-1-15-8-10l-3 3-3-3c-5-7-15 1-10 8l3 3-4 4c-30 5-37 12-37 18 0 5 8 12 23 17 1 5 5 8 10 8 3-1 6-3 7-6v99c-41 9-62 27-61 54-1 1-3 2-4 2l-2 1c-3 1-5 5-4 8 0 3-1 4 1 7 0 2 0 4 2 5v2c0 2 2 3 3 4 2 0 4 0 6-1 1-1 2-2 4-2-1 2 1 4 2 6s3 4 6 4c1 0 1 0 2-1l1-1c3-2 2-5 1-7v-2c0-1 1-2 1-3 0-2 0-3 1-4v-6c0-7-3-14-10-15h-4c2-21 19-35 53-42v118c0 7 6 12 12 12l64-7v24c-4 0-6 2-6 3 0 2 4 4 9 4s9-2 9-4-2-2-4-3v-25l11-1v20c-3 1-4 2-4 4 0 1 4 4 9 4s9-2 9-4c0-3-3-4-6-4 1-6 1-15 0-21l67-7c6 1 11-4 12-10 3-30 4-62 6-93 10 3 18 9 23 18-2 1-3 3-4 5-2 3-3 6-3 9 0 2 0 4 1 6 1 3 1 6 0 9-2 5-1 9 4 9 4-1 7-5 8-9 0-1 0-2 1-3 1 2 3 3 5 4s4 1 6 1c2-1 3-3 3-6 2-1 2-3 2-5 1-2 1-4 0-6 0-4 2-6-2-9zm-180-82l-3 6c-2 5 6 8 8 3l3-6 6 2c5 2 8-5 3-8l-6-2 2-6c2-5-6-8-8-3l-2 6-6-2c-5-3-9 5-3 7l6 3zm47-5l6 2-2 7c-2 5 5 8 7 3l3-6 6 2c5 2 8-6 3-8l-6-2 2-6c3-5-5-8-7-3l-3 6-6-3c-5-2-8 6-3 8zm66 85h-134c-5 0-5 7 0 7h134c5 0 5-7 0-7zm0 19h-134c-5 0-5 6 0 6h134c5 0 5-6 0-6zm-69 15h-65c-5 0-5 6 0 6h65c4 0 4-6 0-6zm-126-157l-3 3-3-3c-6-6-15 2-10 8l3 3-3 3c-7 6 1 15 8 10l3-3 3 3c5 7 15-1 10-8l-3-3 3-3c6-5-2-15-8-10zm196 181c-1 0-2-1-2-1l-2-1h-2l-2-1s-1 0-1-1c0 0-1 0-1-1v-1c1 0 1-1 1-1h5l1 1h2l1-1c-1-1-2-2-3-2-1-1-2-1-4-1h-3c-1 0-1 0-2 1l-2 2v5l1 1c1 1 2 1 2 1l2 1 2 1h2l1 1 1 1c0 1-1 2-1 2-1 1-2 1-3 1h-4l-1-1h-1l-2 2c1 1 1 1 2 1l2 1h4c1 0 2-1 4-1l2-2c1 0 1-1 2-2v-2-2c-1 0-1-1-1-1zm-22 4v2c0 1 0 1-1 2 0 0 0 1-1 1h-4v3h3c2 0 3 0 4-1 1 0 2-1 2-2 1 0 1-1 2-2v-18l-4-1-1 16zm-99-95l9-8 8 8c2 1 5 1 7 0l9-8 8 8c2 1 5 1 7 0l8-8 9 8c2 1 4 1 6 0l8-8 9 8c4 4 10-3 6-7l-11-10c-2-2-5-2-7 0l-8 7-8-7c-2-2-5-2-7 0l-9 7-8-7c-2-2-5-2-7 0l-9 7-8-7c-2-2-5-2-7 0l-11 9c-5 5 2 11 6 8zm59-278c8 0 15 6 15 14s-7 15-15 15-14-7-14-15 6-14 14-14zM5 64c-26 0-47 21-47 47s21 47 47 47 47-21 47-47S31 64 5 64zm-122 45c-4 3-4 8 0 11 3 3 8 3 11 0 14-14 36-18 53-9 0-6 1-11 3-17-23-9-50-3-67 15zm95-49c-42-22-93-15-127 18-10 8 5 22 12 11 26-26 66-33 100-18 4-4 9-8 15-11zm-145 0c49-49 127-51 180-6 6 1 11 2 17 5 3-3 3-9 0-12-57-57-152-54-209 2-7 7 4 19 12 11zm-132 85l-2-2c-1-1-2-1-2 0l-14 13v9l13 13c1 1 2 1 2 0 1 0 2-1 2-2 1-1 1-1 0-2l-13-14 14-13v-2zM29 589l-2-2c-1-1-2-1-2 0l-14 13-14-14h-2c0 1-1 2-2 3-1 0 0 1 0 2l14 13-14 14v2c1 0 2 1 2 2h2l14-14 14 14h2c0-1 1-2 2-2 1-1 0-2 0-2l-13-14 13-14v-1zm1519-29c-3-4-8-4-11 0l-36 67c-2 4 1 9 5 9h73c4 0 7-5 5-9l-36-67zm1 67h-13v-11h13v11zm0-35l-2 21h-9l-2-21v-10h13v10zM27 119h-44c-11 0-11-16 0-16h44c10 0 10 16 0 16zm-205 178c-2-5-7-7-12-6-1 1-3 2-4 4-7-3-10-6-10-7 0-14 91-13 99-13 23 1 47 3 70 8 22 5 27 10 27 12s-4 5-15 8l-13-17c-1-1-2-2-4-2h-127c-7 0-11 6-11 13zM-6 512c0 1-2 2-3 2l-109 11-29 3c-12 1-18-3-19-11 0-73-4-148-4-222 0-2 2-3 3-3h126l2 3-4 32c-1 8 4 15 12 16 10 1 21 2 32 4l4 4-11 161zm-192 376h-18V737h78v33h31v40c1 1-49-32-84 13-25 32-7 65-7 65zm45-68h24v18l-5 37h-15l-4-37v-18zm0 61h23v20h-23v-20z" fill="#ba2e27" fill-opacity=".32"/>
    </g>
    <path fill="#2b2d42" d="M2230 1331h531v494h-531z"/>
  </g>
  <g id="right_field">
    <rect x="5610" y="175" width="1402" height="581" rx="20" ry="20" fill="#2b2d42">
      <animate id="but_blick" attributeType="CSS" attributeName="fill" values="#2B2D42;#3D3F57;#2B2D42;#2B2D42" begin="0.4s;but_blick.end" dur="2.1s" keyTimes="0;0.07;0.5;1"/>
    </rect>
    <path id="but_txt_1" d="M5866 430V294h91v26h-60v28h54v26h-54v56h-31zm141 0h-30V327h30v103zm2-133c0 10-7 17-17 17s-18-7-18-17c0-11 8-18 18-18s17 7 17 18zm25 33c28-8 78-12 87 22 2 6 2 13 2 20v58h-29c0-14 3-65-4-75-5-8-18-6-27-5v80h-29V330zm141 48c0 24 13 33 37 29v-54c-18-11-37-1-37 25zm66 49c-31 9-78 12-92-26-5-13-5-31-1-45 9-28 38-39 64-27v-47l29-5v150zm77 1V296c26-5 81-10 97 16 9 16 4 35-12 44 30 11 30 49 7 65-21 15-66 12-92 7zm30-57v35c12 1 28 2 38-3 11-5 12-22 2-28s-28-4-40-4zm0-24c10 0 27 1 35-3 9-5 9-19 0-24-8-4-25-3-35-2v29zm189 80c-41 12-89 6-89-43v-57h29v54c0 26 8 29 31 26v-80h29v100zm53-52c0 24 17 31 35 21v-47c-21-4-35 2-35 26zm64 42c0 53-47 58-89 44l5-24c20 8 57 13 55-18-17 8-41 6-54-8-12-14-14-40-8-57 14-36 60-33 91-24v87zm72-16c0-14-48-8-48-46 0-36 48-35 73-26l-5 23c-8-3-39-10-39 3 0 17 48 9 48 47 0 37-56 35-80 25l5-24c8 3 46 14 46-2zm-522 250c-18-31-38-62-61-89v89h-31V515h25c23 22 44 53 62 80v-80h31v136h-26zm101 3c-32 0-51-24-51-55 0-30 20-54 51-54 68 0 68 109 0 109zm21-55c0-14-4-29-21-29-16 0-21 15-21 29s5 30 21 30c17 0 21-16 21-30zm114-8c-6 21-12 40-18 60h-23c-14-32-25-70-34-104h31c5 23 10 46 16 68 6-22 13-45 18-68h21c5 23 11 46 17 68 7-22 12-45 17-68h30c-9 34-20 72-34 104h-23c-7-20-13-39-18-60z" fill="#fff" fill-rule="nonzero"/>
  </g>
  <g id="cntrltxt_shd" opacity=".25" transform="translate(50 50)">
    <path d="M2019 107c31 0 55 6 71 17 17 11 25 28 25 51 0 15-3 27-10 36-6 9-16 16-29 21 5 6 9 12 14 18 4 7 9 14 13 21 5 8 9 15 13 23s8 16 12 23h-52c-4-6-8-13-12-20l-12-21c-4-6-8-13-12-19-4-5-8-11-12-16h-23v76h-47V112c10-2 21-3 31-4 11-1 21-1 30-1zm2 40h-9c-2 0-5 1-7 1v56h13c17 0 30-2 38-6 7-5 11-12 11-23 0-10-4-17-12-22-7-4-19-6-34-6zm119 93c0-14 2-27 6-37 5-11 10-19 17-26s15-13 24-16c10-4 19-6 29-6 22 0 40 7 53 21s19 34 19 60v9c0 3-1 6-1 8h-101c1 9 5 17 13 22 7 5 18 8 30 8 9 0 17-1 24-2 8-2 15-3 20-6l6 37c-3 1-6 2-10 3s-8 2-13 3-10 2-16 3c-5 0-11 1-17 1-14 0-26-3-37-7-10-4-19-10-26-17s-12-16-15-26-5-21-5-32zm105-17c0-4-1-8-2-12-1-3-3-6-5-9s-5-5-9-7c-3-2-8-3-13-3s-9 1-13 3c-3 1-6 4-9 7-2 2-4 6-5 9-2 4-3 8-3 12h59zm123 62c8 0 14-1 17-2 4-2 5-5 5-9s-2-7-6-10c-5-3-11-6-20-9-7-3-14-5-19-8-6-3-11-6-15-10s-7-9-9-14c-2-6-3-12-3-20 0-14 5-26 16-35 11-8 26-13 45-13 10 0 19 1 28 3s16 3 21 5l-8 35c-5-2-11-3-17-5-6-1-13-2-20-2-14 0-21 4-21 12 0 2 0 3 1 5 0 1 1 3 3 4s4 3 7 4c4 2 8 3 12 5 10 4 18 7 25 11 6 3 11 7 15 11 3 4 6 9 8 14 1 5 2 11 2 17 0 16-6 28-18 36-11 8-28 12-49 12-14 0-26-2-35-4-10-2-16-4-20-6l8-36c7 3 15 5 23 7 8 1 16 2 24 2zm93-47c0-11 1-22 5-32s9-19 16-26c7-8 16-14 26-18s21-7 34-7c8 0 16 1 23 3 7 1 14 3 20 6l-9 36c-4-2-9-3-14-4-5-2-10-2-16-2-14 0-24 4-30 12-7 8-10 19-10 32 0 15 3 26 9 33 6 8 17 12 32 12 6 0 12 0 18-1s12-3 17-5l6 36c-5 3-12 5-19 6-8 2-17 3-26 3-15 0-27-3-37-7-11-4-19-10-26-17-7-8-12-17-15-27s-4-21-4-33zm292 74c-8 2-18 4-30 6s-24 3-37 3c-14 0-25-2-34-5-9-4-16-9-21-16-5-6-9-14-11-23s-3-19-3-30v-87h44v82c0 14 2 25 6 31 4 7 11 10 21 10 4 0 7 0 11-1 3 0 6 0 9-1V160h45v152zm34-72c0-14 2-27 7-37 4-11 10-19 17-26s15-13 24-16c9-4 18-6 28-6 22 0 40 7 53 21s20 34 20 60c0 3-1 6-1 9v8h-102c1 9 6 17 13 22 8 5 18 8 31 8 8 0 16-1 24-2 8-2 14-3 19-6l6 37c-2 1-5 2-9 3s-9 2-14 3l-15 3c-6 0-12 1-17 1-14 0-27-3-37-7-11-4-20-10-26-17-7-7-12-16-16-26-3-10-5-21-5-32zm105-17c0-4-1-8-2-12-1-3-2-6-5-9-2-3-5-5-8-7-4-2-8-3-13-3s-10 1-13 3c-4 1-7 4-9 7-3 2-5 6-6 9l-3 12h59zm229-28c9-14 17-29 24-43 8-14 15-28 21-43h52c-12 23-23 45-36 66-12 21-25 42-38 63v79h-47v-79c-14-21-27-42-39-63s-24-43-35-66h54c6 15 13 29 20 43 8 14 16 29 24 43zm241 43c0 13-2 24-6 34-3 10-9 19-15 27-7 7-15 13-25 17-9 4-20 6-32 6-11 0-22-2-32-6-9-4-17-10-24-17-7-8-12-17-16-27s-6-21-6-34c0-12 2-24 6-34s10-19 16-26c7-7 16-13 25-17 10-4 20-6 31-6 12 0 22 2 31 6 10 4 18 10 25 17s12 16 16 26 6 22 6 34zm-46 0c0-14-3-25-8-32-6-8-14-12-24-12s-18 4-24 12c-5 7-8 18-8 32s3 25 8 33c6 8 14 12 24 12s18-4 24-12c5-8 8-19 8-33zm215 74c-8 2-18 4-30 6s-24 3-37 3c-14 0-25-2-34-5-9-4-16-9-21-16-5-6-9-14-11-23s-3-19-3-30v-87h44v82c0 14 2 25 6 31 4 7 11 10 21 10 3 0 7 0 10-1 4 0 7 0 10-1V160h45v152zm137-113c-4-1-9-2-14-3-6-1-11-2-18-2-2 0-6 1-10 1-4 1-7 1-9 2v120h-44V168c8-3 17-6 28-8 11-3 23-4 37-4 2 0 5 0 8 1 4 0 7 0 10 1 4 0 7 1 11 2 3 0 6 1 8 2l-7 37zm220 48c0 11-1 20-3 29-3 9-7 17-12 24-6 6-14 12-24 16-9 4-22 6-36 6s-26-2-35-5c-10-4-18-8-25-12l16-36c6 3 12 6 19 9 6 2 13 4 21 4 12 0 20-3 25-9 5-5 7-15 7-28V109h47v138zm102 39h13c4 0 7-1 10-1v-34c-2 0-5-1-9-1-3-1-6-1-9-1-5 0-9 0-12 1-4 0-7 1-10 3-3 1-5 3-7 6-1 2-2 5-2 9 0 7 2 11 7 14s11 4 19 4zm-3-131c13 0 24 2 33 5 8 3 16 7 21 13 5 5 9 12 11 20s3 17 3 27v93c-6 1-15 3-26 5-12 2-25 3-42 3-10 0-19-1-27-3-9-2-16-5-22-9s-10-9-14-16c-3-7-4-15-4-24s1-17 5-24c4-6 9-11 15-15s13-7 21-8c8-2 16-3 25-3 6 0 11 0 16 1 4 0 8 1 11 2v-4c0-8-3-14-7-19-5-4-13-6-24-6-8 0-16 0-23 1s-14 3-19 5l-6-36c3-1 6-2 10-3s8-1 13-2c4-1 9-1 14-2 5 0 10-1 16-1zm148 162c-10-20-21-43-31-70-11-27-21-56-30-87h47c2 7 5 16 7 25l9 27c3 10 6 19 9 28 3 8 5 16 8 24l9-24c3-9 6-18 9-28 2-9 5-18 8-27s5-18 7-25h46c-9 31-19 60-30 87-10 27-21 50-31 70h-37zm179-31h13c4 0 7-1 9-1v-34c-1 0-4-1-8-1-3-1-7-1-10-1-4 0-8 0-11 1-4 0-7 1-10 3-3 1-5 3-7 6-1 2-2 5-2 9 0 7 2 11 7 14s11 4 19 4zm-3-131c13 0 24 2 33 5 8 3 16 7 21 13 5 5 9 12 11 20s3 17 3 27v93c-6 1-15 3-26 5-12 2-26 3-42 3-10 0-19-1-27-3-9-2-16-5-22-9s-11-9-14-16-5-15-5-24 2-17 6-24c4-6 9-11 15-15s13-7 21-8c8-2 16-3 25-3 6 0 11 0 16 1 4 0 8 1 10 2v-4c0-8-2-14-6-19-5-4-13-6-24-6-8 0-16 0-23 1s-14 3-19 5l-6-36c3-1 6-2 10-3s8-1 13-2c4-1 9-1 14-2 5 0 10-1 16-1zm169 127c6 0 12-1 16-2s8-3 10-5c3-1 5-4 6-6 1-3 1-6 1-9 0-7-3-12-9-17-7-4-18-9-33-14l-21-9c-7-3-13-7-18-11-6-5-10-11-13-18-4-6-5-14-5-24s1-18 5-26 9-14 15-20c7-5 15-9 24-12 10-3 20-4 32-4 14 0 26 1 36 4 11 3 19 6 26 10l-14 37c-6-3-12-6-19-8s-16-3-26-3c-11 0-19 1-24 4s-7 8-7 14c0 4 0 7 2 10s5 5 8 7 7 4 11 6c5 1 9 3 15 5 10 4 20 8 28 12s14 8 20 14c5 5 9 11 12 18 2 7 3 15 3 25 0 20-6 35-20 45-14 11-34 17-61 17-10 0-18-1-25-2-8-1-14-3-20-4-6-2-11-3-15-5s-7-4-10-5l13-38c6 4 14 7 23 10 9 2 20 4 34 4zm107-44c0-11 2-22 6-32 3-10 9-19 16-26 7-8 15-14 25-18s21-7 34-7c9 0 16 1 23 3 7 1 14 3 21 6l-10 36c-4-2-8-3-13-4-5-2-11-2-17-2-13 0-23 4-30 12-6 8-9 19-9 32 0 15 3 26 9 33 6 8 16 12 32 12 5 0 11 0 17-1s12-3 17-5l6 36c-5 3-11 5-19 6-8 2-16 3-26 3-14 0-27-3-37-7s-19-10-26-17c-6-8-11-17-14-27s-5-21-5-33zm253-39c-4-1-9-2-15-3-5-1-11-2-17-2-3 0-6 1-10 1-4 1-7 1-9 2v120h-45V168c8-3 18-6 29-8 11-3 23-4 36-4 3 0 6 0 9 1 3 0 7 0 10 1 4 0 7 1 10 2 4 0 7 1 9 2l-7 37zm76 118h-45V160h45v157zm4-203c0 8-3 15-8 19-5 5-12 7-19 7s-13-2-18-7c-6-4-8-11-8-19s2-15 8-19c5-5 11-7 18-7s14 2 19 7c5 4 8 11 8 19zm139 126c0-14-3-25-9-34-7-8-16-12-28-12h-11c-4 1-6 1-9 2v80c3 2 7 4 11 5 5 1 9 2 14 2 21 0 32-15 32-43zm45-2c0 13-1 24-4 34s-7 18-13 26c-6 7-13 12-22 16-8 4-18 6-30 6-6 0-12 0-17-1-5-2-11-3-16-6v60h-44V165c4-1 8-2 14-4 5-1 10-2 16-2 6-1 11-2 17-2 6-1 12-1 17-1 13 0 25 2 35 6s19 9 26 16 12 16 16 26 5 22 5 34zm33-118l45-7v47h54v37h-54v55c0 10 2 17 5 23 3 5 10 8 20 8 5 0 10 0 15-1s10-2 14-4l6 35c-5 2-11 4-18 6-6 1-15 2-24 2-12 0-22-2-30-5s-15-8-20-14c-4-6-8-13-10-21-2-9-3-18-3-28V120z"/>
    <path id="mdl_txt_1" d="M2670 422h17v89c0 6-1 12-3 17s-5 9-8 12c-4 3-8 6-13 7-5 2-10 3-16 3s-11-1-16-2c-5-2-9-4-12-7-4-3-7-7-8-12-2-4-3-10-3-16h16c0 4 1 8 2 11 1 2 3 5 5 7s4 3 7 4 6 1 9 1c4 0 7 0 9-1 3-2 6-3 8-5s4-5 5-8 1-7 1-11v-89zm101 126c-1-1-1-3-2-4 0-2 0-4-1-6-1 2-3 3-5 5l-6 3c-2 1-4 2-7 3-3 0-5 1-8 1-5 0-9-1-13-2-4-2-7-4-10-6-3-3-5-6-7-9-1-3-2-7-2-11 0-5 1-9 3-13s5-7 9-10c3-2 8-4 13-6 5-1 11-2 17-2h16v-7c0-6-2-10-5-13-3-4-8-5-15-5-3 0-5 0-8 1-2 1-5 2-6 3-2 1-3 3-4 5s-2 3-2 5h-16c0-3 1-6 3-10 1-3 4-6 7-8 3-3 7-5 12-7 4-1 10-2 15-2s10 0 14 2c5 1 8 3 11 6 3 2 6 5 7 9 2 4 3 9 3 14v44c0 3 0 6 1 10 0 3 1 6 2 9v1h-16zm-27-12c3 0 6-1 8-1 3-1 5-2 7-4 2-1 4-2 6-4 1-2 2-3 3-5v-19h-13c-9 0-16 1-21 4s-8 7-8 13c0 2 1 4 1 6 1 2 2 4 4 5 1 2 3 3 5 4 3 0 5 1 8 1zm95-10l23-72h16l-33 94h-12l-34-94h16l24 72zm111 22c0-1-1-3-1-4-1-2-1-4-1-6l-5 5-6 3c-3 1-5 2-8 3-2 0-5 1-8 1-5 0-9-1-13-2-4-2-7-4-10-6-2-3-5-6-6-9-2-3-2-7-2-11 0-5 1-9 3-13s4-7 8-10c4-2 8-4 13-6 5-1 11-2 18-2h16v-7c0-6-2-10-5-13-4-4-9-5-15-5-3 0-6 0-8 1-3 1-5 2-7 3s-3 3-4 5-1 3-1 5h-16c0-3 0-6 2-10 2-3 4-6 8-8 3-3 7-5 11-7 5-1 10-2 16-2 5 0 9 0 14 2 4 1 8 3 11 6 3 2 5 5 7 9s3 9 3 14v54l3 9v1h-17zm-26-12c2 0 5-1 8-1 2-1 5-2 7-4 2-1 3-2 5-4s3-3 4-5v-19h-14c-9 0-16 1-21 4s-7 7-7 13c0 2 0 4 1 6s2 4 3 5c2 2 4 3 6 4 2 0 5 1 8 1zm134-20c0-3 0-5-1-8-1-2-3-4-5-6s-5-3-9-5-9-3-15-5-12-4-17-6c-5-3-9-5-13-8-3-3-6-6-8-10s-3-8-3-13 1-10 4-14c2-4 4-8 8-11s8-5 14-7c5-2 11-3 17-3 7 0 14 1 19 4 6 2 10 5 14 8 4 4 7 8 9 12 2 5 3 10 3 14h-17c0-3-1-6-2-9s-3-6-5-8-5-4-8-5c-4-1-8-2-13-2-4 0-8 1-11 2-4 1-6 2-8 4-3 2-4 4-5 6-1 3-2 5-2 8s1 6 2 8 3 4 5 6c3 2 6 3 9 5 4 1 8 3 14 4 7 2 13 5 18 7 5 3 10 5 13 8 3 4 6 7 8 11 1 4 2 8 2 13s-1 10-3 14-5 8-9 11c-4 2-8 5-14 6-5 2-11 3-18 3-4 0-8-1-11-1-4-1-8-2-12-4-3-1-6-3-9-5s-6-5-8-7c-3-3-4-6-6-10-1-3-2-7-2-11h17c0 4 1 8 3 11 1 3 4 5 7 7 2 2 6 4 9 5 4 1 8 1 12 1 9 0 16-2 20-5 5-4 7-9 7-15zm73 21c3 0 6-1 8-2 3-1 5-2 7-4 2-1 4-3 5-5 1-3 2-5 2-8h15c0 5-1 9-3 12-2 4-5 7-8 10s-7 5-12 7c-4 2-9 3-14 3-7 0-13-2-18-4-5-3-10-6-13-10-4-4-6-9-8-15s-2-12-2-18v-4c0-6 0-12 2-18 2-5 4-10 8-14 3-5 8-8 13-11 5-2 11-3 18-3 6 0 11 1 15 2 5 2 8 4 12 7 3 3 5 7 7 11s3 9 3 14h-15c0-3-1-6-2-8-1-3-2-5-4-7s-4-3-7-5c-3-1-6-1-9-1-5 0-9 1-12 3s-6 4-8 8c-2 3-3 6-4 10s-1 8-1 12v4c0 4 0 8 1 12s2 8 4 11 5 6 8 8 7 3 12 3zm101-68c-2 0-3-1-4-1h-4c-6 0-10 1-14 4-3 2-6 5-8 10v66h-16v-94h16v11c3-4 6-7 9-9 4-2 8-3 14-3h4c1 0 2 1 3 1v15zm32 79h-16v-94h16v94zm-18-118c0-3 1-5 3-7 1-2 4-3 7-3s5 1 7 3 2 4 2 7c0 2 0 4-2 6s-4 3-7 3-6-1-7-3c-2-2-3-4-3-6zm122 72c0 7 0 13-2 19s-4 11-7 15c-3 5-7 8-11 10-5 3-10 4-16 4s-11-1-15-3c-5-2-8-5-12-8v45h-16V454h15l1 11c3-4 7-7 11-9 5-2 10-3 16-3s11 1 15 3c5 2 9 6 12 10s5 9 7 15 2 12 2 19v2zm-16-2c0-4 0-9-1-13s-3-7-5-11c-2-3-4-5-8-7-3-2-7-3-11-3-3 0-5 1-7 1-2 1-5 2-6 3-2 1-4 2-5 4s-3 3-4 5v45c1 2 3 3 4 5s3 3 5 4c1 1 4 2 6 3 2 0 5 1 7 1 5 0 8-1 11-3 4-2 6-4 8-8 2-3 4-6 5-10 1-5 1-9 1-14v-2zm58-68v22h18v13h-18v58c0 2 1 4 1 6l3 3c0 1 2 1 3 2h8c1-1 2-1 3-1v13c-1 0-3 1-5 1-2 1-4 1-7 1s-6-1-8-2c-3 0-5-2-7-4s-4-4-5-7c-1-4-2-8-2-12v-58h-17v-13h17v-22h16zm154 58h-55v44h64v14h-80V422h79v14h-63v40h55v14zm72-21c-1 0-2-1-4-1h-4c-5 0-10 1-13 4-4 2-6 5-8 10v66h-16v-94h16v11c2-4 5-7 9-9s8-3 13-3h4c2 0 3 1 3 1v15zm60 0c-1 0-3-1-4-1h-4c-5 0-10 1-13 4-4 2-6 5-8 10v66h-16v-94h15l1 11c2-4 5-7 9-9 3-2 8-3 13-3h4c2 0 3 1 3 1v15zm9 31c0-6 1-13 3-19 2-5 5-10 8-15 4-4 8-7 14-10 5-2 11-3 17-3 7 0 13 1 18 3 5 3 10 6 14 10 3 5 6 10 8 15 2 6 3 13 3 19v2c0 7-1 13-3 19s-5 11-8 15c-4 4-9 8-14 10-5 3-11 4-18 4-6 0-12-1-17-4-5-2-10-6-14-10-3-4-6-9-8-15s-3-12-3-19v-2zm16 2c0 5 0 9 2 13 1 5 2 8 5 11 2 4 5 6 8 8s7 3 11 3c5 0 9-1 12-3s6-4 8-8c3-3 4-6 5-11 1-4 2-8 2-13v-2c0-4-1-9-2-13s-2-8-5-11c-2-3-5-5-8-7s-7-3-12-3c-4 0-8 1-11 3s-6 4-8 7c-3 3-4 7-5 11-2 4-2 9-2 13v2zm134-33c-1 0-2-1-4-1h-4c-5 0-10 1-13 4-4 2-6 5-8 10v66h-16v-94h16v11c2-4 5-7 9-9s8-3 13-3h4c2 0 3 1 3 1v15zm158 79h-17v-58h-63v58h-17V422h17v54h63v-54h17v126zm85 0c-1-1-1-3-2-4v-6c-2 2-4 3-5 5-2 1-4 2-7 3-2 1-4 2-7 3-2 0-5 1-8 1-5 0-9-1-13-2-4-2-7-4-10-6-3-3-5-6-6-9-2-3-3-7-3-11 0-5 1-9 3-13s5-7 9-10c3-2 8-4 13-6 5-1 11-2 17-2h16v-7c0-6-1-10-5-13-3-4-8-5-14-5-3 0-6 0-9 1l-6 3c-2 1-3 3-4 5s-2 3-2 5h-16c0-3 1-6 3-10 2-3 4-6 7-8 4-3 8-5 12-7 5-1 10-2 15-2 6 0 10 0 15 2 4 1 7 3 11 6 3 2 5 5 7 9 1 4 2 9 2 14v44c0 3 1 6 1 10 1 3 1 6 3 9v1h-17zm-27-12c3 0 6-1 8-1 3-1 5-2 7-4 2-1 4-2 6-4 1-2 2-3 3-5v-19h-13c-9 0-16 1-21 4s-8 7-8 13c0 2 1 4 1 6 1 2 2 4 4 5 1 2 3 3 6 4 2 0 4 1 7 1zm81-82v12c3-4 7-7 12-10 5-2 10-3 16-3 5 0 9 0 12 2 4 1 7 3 10 6 2 2 4 6 6 10 1 4 2 10 2 16v61h-16v-61c0-4 0-7-1-10-1-2-2-4-4-6-1-2-3-3-6-4-2 0-5-1-8-1-5 0-10 2-13 4-4 3-7 7-10 11v67h-16v-94h16zm78 46c0-7 1-13 3-19s4-11 7-15c4-4 7-8 12-10 4-2 10-3 15-3 6 0 11 1 15 3s8 4 11 8v-49h16v133h-15v-10c-3 4-7 7-12 9-4 2-9 3-15 3s-11-1-15-4c-5-2-8-5-12-10-3-4-5-9-7-15s-3-12-3-19v-2zm16 2c0 5 1 9 2 13 1 5 2 8 4 11s5 6 8 7c3 2 7 3 11 3 3 0 5 0 8-1 2-1 4-1 6-3 1-1 3-2 5-4l3-6v-42l-3-6c-2-1-3-3-5-4l-6-3c-3 0-5-1-8-1-4 0-8 1-11 3s-6 4-8 7c-2 4-3 7-4 11s-2 9-2 13v2zm105 46h-16V415h16v133zm43 0h-16v-94h16v94zm-17-118c0-3 1-5 2-7 2-2 4-3 7-3 4 0 6 1 8 3 1 2 2 4 2 7 0 2-1 4-2 6-2 2-4 3-8 3-3 0-5-1-7-3-1-2-2-4-2-6zm58 24l1 12c3-4 7-7 12-10 4-2 10-3 16-3 4 0 8 0 12 2 4 1 7 3 9 6 3 2 5 6 6 10 2 4 3 10 3 16v61h-16v-61c0-4-1-7-2-10 0-2-2-4-3-6-2-2-4-3-6-4-3 0-5-1-8-1-5 0-10 2-14 4-4 3-7 7-9 11v67h-16v-94h15zm79 46c0-7 1-13 2-19 2-6 5-11 8-15s7-8 11-10c5-2 10-3 16-3s11 1 15 3c5 2 8 5 11 9l1-11h15v92c0 6-1 12-3 16-2 5-5 9-8 13-4 3-8 6-13 7-5 2-10 3-16 3-2 0-5 0-8-1s-6-1-10-3c-3-1-6-3-9-5s-5-4-7-7l8-10 6 6c2 2 4 3 6 4s4 2 7 2c2 1 4 1 6 1 4 0 7-1 10-2s6-3 8-5 4-4 5-7c1-4 2-7 2-11v-8c-3 3-7 6-11 8-5 2-10 3-15 3-6 0-11-1-16-4-4-2-8-5-11-10-3-4-6-9-8-15-1-6-2-12-2-19v-2zm16 2c0 5 0 9 1 13 1 5 3 8 5 11s4 6 7 7c4 2 7 3 12 3 2 0 5 0 7-1 3-1 5-2 6-3 2-1 4-2 5-4 2-2 3-4 4-6v-42c-1-2-2-4-4-6-1-1-3-3-5-4-1-1-3-2-6-3-2 0-4-1-7-1-5 0-8 1-11 3-4 2-6 4-8 7-2 4-4 7-5 11s-1 9-1 13v2z"/>
    <path d="M3218 637h-79c-8 0-14 7-14 15v136c0 8 6 15 14 15h97c8 0 14-7 14-15V672l-32-35zm-79 151V652h69v30h28v106h-97z"/>
    <path d="M3095 720c2 1 4 3 6 5s4 4 5 7c1 2 2 6 3 9 1 4 1 9 1 14v40c1 5 2 9 3 11 2 3 4 5 7 6s8 2 14 2v11h-2c-7 0-13-1-17-3-5-1-9-3-11-6-3-3-5-7-6-12-1-4-2-10-2-15v-42c0-3 0-5-1-8-1-2-2-5-4-7-1-2-4-4-6-5-3-1-6-2-9-2v-10c3 0 6-1 9-2 2-1 5-3 6-5 2-2 3-5 4-7 1-3 1-5 1-8v-42c0-6 1-11 2-15 1-5 3-9 6-12 2-3 6-5 11-6 4-2 10-3 17-3h2v11c-6 0-11 1-14 2s-5 3-7 6c-1 2-2 6-3 11v40c0 5 0 10-1 14s-2 7-3 10c-1 2-3 5-5 6-2 2-4 4-6 5zm185 0c-2 1-4 3-6 5s-3 4-5 7c-1 2-2 6-3 9 0 4-1 9-1 14v40c0 5-1 9-3 11-1 3-4 5-7 6s-7 2-13 2v11h1c7 0 13-1 18-3 4-1 8-3 11-6 2-3 4-7 5-12 1-4 2-10 2-15v-42c0-3 0-5 1-8 1-2 2-5 4-7s4-4 6-5c3-1 6-2 10-2v-10c-4 0-7-1-10-2-2-1-4-3-6-5s-3-5-4-7c-1-3-1-5-1-8v-42c0-6-1-11-2-15-1-5-3-9-5-12-3-3-7-5-11-6-5-2-11-3-18-3h-1v11c6 0 10 1 13 2s6 3 7 6c2 2 3 6 3 11v40c0 5 1 10 1 14 1 4 2 7 3 10 2 2 3 5 5 6 2 2 4 4 6 5z"/>
    <path d="M3204 711c30 0 55 24 55 54s-25 55-55 55-55-25-55-55 25-54 55-54z"/>
    <path d="M3195 730h21v16l-4 33h-13l-4-33v-16zm0 54h20v17h-20v-17zM3442 659v24h-38v103h-29V683h-38v-24h105zm56-2c19 0 34 4 44 10 10 7 15 18 15 32 0 9-2 16-6 22-4 5-10 10-18 13 3 3 6 7 8 11 3 4 6 8 9 13 2 4 5 9 8 14 2 4 4 9 7 14h-32c-3-4-5-9-7-13-3-4-5-8-8-12-2-4-5-8-7-12-2-3-5-6-8-10h-14v47h-28V661c6-2 13-2 19-3 6 0 12-1 18-1zm2 25h-11v35h8c11 0 19-2 23-4 5-3 7-8 7-14s-2-11-7-13c-4-3-11-4-20-4zm174 104c-2-5-3-9-5-14-1-4-3-9-5-14h-49c-2 5-3 10-5 14-2 5-3 9-4 14h-30c4-13 9-26 13-38 4-11 9-22 13-33 4-10 8-20 12-29l12-27h28c9 18 17 37 24 56 4 10 9 21 13 33s9 25 13 38h-30zm-35-98c0 1-1 4-2 7-3 8-7 17-10 25-2 5-4 10-5 16h36c-2-6-4-11-6-16s-3-9-5-14c-2-4-3-7-5-11-1-2-2-5-3-7zm135 100c-20 0-36-5-47-17-11-11-16-28-16-49 0-10 1-20 5-28 3-8 8-15 13-21 6-6 13-10 21-13s16-4 26-4c5 0 10 0 14 1 5 1 9 2 12 3s6 2 8 3 4 2 5 3l-8 23c-4-2-9-4-14-6-5-1-11-2-18-2-4 0-8 1-13 2-4 2-8 4-11 7-3 4-6 8-8 13s-3 11-3 19c0 6 1 11 2 16 2 5 4 9 7 13s6 7 11 9 10 3 17 3c4 0 8 0 11-1 3 0 6-1 9-1 2-1 4-2 7-3 1 0 3-1 5-2l8 23c-4 2-10 4-17 6-8 2-16 3-26 3zm136-2c-3-5-6-9-9-14-4-5-7-9-11-14s-9-10-13-14-9-8-13-12v54h-29V659h29v48c7-8 15-16 22-25 8-8 15-16 21-23h34c-8 10-17 20-26 29-9 10-18 20-28 29 10 9 20 19 30 30 9 12 18 25 27 39h-34zM4018 739c0 7-1 14-3 20-1 6-4 11-8 15-3 4-8 8-13 10-6 2-12 3-19 3h-10c-3-1-7-1-10-2l1-15c0-1 1-2 2-3s2-1 4-1h4c1 1 3 1 6 1 4 0 7-1 9-2 3-1 5-2 7-4 2-3 3-5 4-9 1-3 1-8 1-13v-86h25v86zm98-62c-1 2-2 3-2 3-1 1-2 1-4 1-1 0-2 0-4-1-1-1-3-3-5-4s-5-2-7-3c-3-1-6-1-10-1s-7 0-9 1c-3 1-5 2-7 4-1 1-3 3-3 5-1 2-2 4-2 7s1 5 3 7 4 4 7 6c3 1 6 2 10 4 3 1 7 2 11 3 4 2 7 3 11 5s7 4 10 6c3 3 5 6 7 10s2 9 2 14c0 6-1 12-3 17s-5 10-9 14-8 7-14 9-12 3-20 3c-4 0-8 0-12-1s-8-2-12-4c-4-1-7-3-10-5-4-2-7-4-9-7l7-12c1-1 1-2 2-2 1-1 2-1 4-1 1 0 3 1 5 2 1 1 3 3 6 4 2 2 5 3 8 4 4 1 8 2 12 2 7 0 13-2 16-5 4-3 6-8 6-14 0-4-1-7-2-9-2-2-4-4-7-5-3-2-6-3-10-4s-8-2-11-4c-4-1-8-2-12-4-3-2-6-4-9-7-3-2-6-6-7-10-2-4-3-9-3-15 0-5 1-10 3-14 2-5 5-9 8-12 4-4 9-7 14-9s12-3 18-3c8 0 16 1 22 3 7 3 12 6 17 11l-6 11z"/>
  </g>
  <g id="cntrltxt">
    <g id="c_txt_1">
      <path id="top_txt_1" d="M2019 107c31 0 55 6 71 17 17 11 25 28 25 51 0 15-3 27-10 36-6 9-16 16-29 21 5 6 9 12 14 18 4 7 9 14 13 21 5 8 9 15 13 23s8 16 12 23h-52c-4-6-8-13-12-20l-12-21c-4-6-8-13-12-19-4-5-8-11-12-16h-23v76h-47V112c10-2 21-3 31-4 11-1 21-1 30-1zm2 40h-9c-2 0-5 1-7 1v56h13c17 0 30-2 38-6 7-5 11-12 11-23 0-10-4-17-12-22-7-4-19-6-34-6zm119 93c0-14 2-27 6-37 5-11 10-19 17-26s15-13 24-16c10-4 19-6 29-6 22 0 40 7 53 21s19 34 19 60v9c0 3-1 6-1 8h-101c1 9 5 17 13 22 7 5 18 8 30 8 9 0 17-1 24-2 8-2 15-3 20-6l6 37c-3 1-6 2-10 3s-8 2-13 3-10 2-16 3c-5 0-11 1-17 1-14 0-26-3-37-7-10-4-19-10-26-17s-12-16-15-26-5-21-5-32zm105-17c0-4-1-8-2-12-1-3-3-6-5-9s-5-5-9-7c-3-2-8-3-13-3s-9 1-13 3c-3 1-6 4-9 7-2 2-4 6-5 9-2 4-3 8-3 12h59zm123 62c8 0 14-1 17-2 4-2 5-5 5-9s-2-7-6-10c-5-3-11-6-20-9-7-3-14-5-19-8-6-3-11-6-15-10s-7-9-9-14c-2-6-3-12-3-20 0-14 5-26 16-35 11-8 26-13 45-13 10 0 19 1 28 3s16 3 21 5l-8 35c-5-2-11-3-17-5-6-1-13-2-20-2-14 0-21 4-21 12 0 2 0 3 1 5 0 1 1 3 3 4s4 3 7 4c4 2 8 3 12 5 10 4 18 7 25 11 6 3 11 7 15 11 3 4 6 9 8 14 1 5 2 11 2 17 0 16-6 28-18 36-11 8-28 12-49 12-14 0-26-2-35-4-10-2-16-4-20-6l8-36c7 3 15 5 23 7 8 1 16 2 24 2zm93-47c0-11 1-22 5-32s9-19 16-26c7-8 16-14 26-18s21-7 34-7c8 0 16 1 23 3 7 1 14 3 20 6l-9 36c-4-2-9-3-14-4-5-2-10-2-16-2-14 0-24 4-30 12-7 8-10 19-10 32 0 15 3 26 9 33 6 8 17 12 32 12 6 0 12 0 18-1s12-3 17-5l6 36c-5 3-12 5-19 6-8 2-17 3-26 3-15 0-27-3-37-7-11-4-19-10-26-17-7-8-12-17-15-27s-4-21-4-33zm292 74c-8 2-18 4-30 6s-24 3-37 3c-14 0-25-2-34-5-9-4-16-9-21-16-5-6-9-14-11-23s-3-19-3-30v-87h44v82c0 14 2 25 6 31 4 7 11 10 21 10 4 0 7 0 11-1 3 0 6 0 9-1V160h45v152zm34-72c0-14 2-27 7-37 4-11 10-19 17-26s15-13 24-16c9-4 18-6 28-6 22 0 40 7 53 21s20 34 20 60c0 3-1 6-1 9v8h-102c1 9 6 17 13 22 8 5 18 8 31 8 8 0 16-1 24-2 8-2 14-3 19-6l6 37c-2 1-5 2-9 3s-9 2-14 3l-15 3c-6 0-12 1-17 1-14 0-27-3-37-7-11-4-20-10-26-17-7-7-12-16-16-26-3-10-5-21-5-32zm105-17c0-4-1-8-2-12-1-3-2-6-5-9-2-3-5-5-8-7-4-2-8-3-13-3s-10 1-13 3c-4 1-7 4-9 7-3 2-5 6-6 9l-3 12h59zm229-28c9-14 17-29 24-43 8-14 15-28 21-43h52c-12 23-23 45-36 66-12 21-25 42-38 63v79h-47v-79c-14-21-27-42-39-63s-24-43-35-66h54c6 15 13 29 20 43 8 14 16 29 24 43zm241 43c0 13-2 24-6 34-3 10-9 19-15 27-7 7-15 13-25 17-9 4-20 6-32 6-11 0-22-2-32-6-9-4-17-10-24-17-7-8-12-17-16-27s-6-21-6-34c0-12 2-24 6-34s10-19 16-26c7-7 16-13 25-17 10-4 20-6 31-6 12 0 22 2 31 6 10 4 18 10 25 17s12 16 16 26 6 22 6 34zm-46 0c0-14-3-25-8-32-6-8-14-12-24-12s-18 4-24 12c-5 7-8 18-8 32s3 25 8 33c6 8 14 12 24 12s18-4 24-12c5-8 8-19 8-33zm215 74c-8 2-18 4-30 6s-24 3-37 3c-14 0-25-2-34-5-9-4-16-9-21-16-5-6-9-14-11-23s-3-19-3-30v-87h44v82c0 14 2 25 6 31 4 7 11 10 21 10 3 0 7 0 10-1 4 0 7 0 10-1V160h45v152zm137-113c-4-1-9-2-14-3-6-1-11-2-18-2-2 0-6 1-10 1-4 1-7 1-9 2v120h-44V168c8-3 17-6 28-8 11-3 23-4 37-4 2 0 5 0 8 1 4 0 7 0 10 1 4 0 7 1 11 2 3 0 6 1 8 2l-7 37zm220 48c0 11-1 20-3 29-3 9-7 17-12 24-6 6-14 12-24 16-9 4-22 6-36 6s-26-2-35-5c-10-4-18-8-25-12l16-36c6 3 12 6 19 9 6 2 13 4 21 4 12 0 20-3 25-9 5-5 7-15 7-28V109h47v138zm102 39h13c4 0 7-1 10-1v-34c-2 0-5-1-9-1-3-1-6-1-9-1-5 0-9 0-12 1-4 0-7 1-10 3-3 1-5 3-7 6-1 2-2 5-2 9 0 7 2 11 7 14s11 4 19 4zm-3-131c13 0 24 2 33 5 8 3 16 7 21 13 5 5 9 12 11 20s3 17 3 27v93c-6 1-15 3-26 5-12 2-25 3-42 3-10 0-19-1-27-3-9-2-16-5-22-9s-10-9-14-16c-3-7-4-15-4-24s1-17 5-24c4-6 9-11 15-15s13-7 21-8c8-2 16-3 25-3 6 0 11 0 16 1 4 0 8 1 11 2v-4c0-8-3-14-7-19-5-4-13-6-24-6-8 0-16 0-23 1s-14 3-19 5l-6-36c3-1 6-2 10-3s8-1 13-2c4-1 9-1 14-2 5 0 10-1 16-1zm148 162c-10-20-21-43-31-70-11-27-21-56-30-87h47c2 7 5 16 7 25l9 27c3 10 6 19 9 28 3 8 5 16 8 24l9-24c3-9 6-18 9-28 2-9 5-18 8-27s5-18 7-25h46c-9 31-19 60-30 87-10 27-21 50-31 70h-37zm179-31h13c4 0 7-1 9-1v-34c-1 0-4-1-8-1-3-1-7-1-10-1-4 0-8 0-11 1-4 0-7 1-10 3-3 1-5 3-7 6-1 2-2 5-2 9 0 7 2 11 7 14s11 4 19 4zm-3-131c13 0 24 2 33 5 8 3 16 7 21 13 5 5 9 12 11 20s3 17 3 27v93c-6 1-15 3-26 5-12 2-26 3-42 3-10 0-19-1-27-3-9-2-16-5-22-9s-11-9-14-16-5-15-5-24 2-17 6-24c4-6 9-11 15-15s13-7 21-8c8-2 16-3 25-3 6 0 11 0 16 1 4 0 8 1 10 2v-4c0-8-2-14-6-19-5-4-13-6-24-6-8 0-16 0-23 1s-14 3-19 5l-6-36c3-1 6-2 10-3s8-1 13-2c4-1 9-1 14-2 5 0 10-1 16-1zm169 127c6 0 12-1 16-2s8-3 10-5c3-1 5-4 6-6 1-3 1-6 1-9 0-7-3-12-9-17-7-4-18-9-33-14l-21-9c-7-3-13-7-18-11-6-5-10-11-13-18-4-6-5-14-5-24s1-18 5-26 9-14 15-20c7-5 15-9 24-12 10-3 20-4 32-4 14 0 26 1 36 4 11 3 19 6 26 10l-14 37c-6-3-12-6-19-8s-16-3-26-3c-11 0-19 1-24 4s-7 8-7 14c0 4 0 7 2 10s5 5 8 7 7 4 11 6c5 1 9 3 15 5 10 4 20 8 28 12s14 8 20 14c5 5 9 11 12 18 2 7 3 15 3 25 0 20-6 35-20 45-14 11-34 17-61 17-10 0-18-1-25-2-8-1-14-3-20-4-6-2-11-3-15-5s-7-4-10-5l13-38c6 4 14 7 23 10 9 2 20 4 34 4zm107-44c0-11 2-22 6-32 3-10 9-19 16-26 7-8 15-14 25-18s21-7 34-7c9 0 16 1 23 3 7 1 14 3 21 6l-10 36c-4-2-8-3-13-4-5-2-11-2-17-2-13 0-23 4-30 12-6 8-9 19-9 32 0 15 3 26 9 33 6 8 16 12 32 12 5 0 11 0 17-1s12-3 17-5l6 36c-5 3-11 5-19 6-8 2-16 3-26 3-14 0-27-3-37-7s-19-10-26-17c-6-8-11-17-14-27s-5-21-5-33zm253-39c-4-1-9-2-15-3-5-1-11-2-17-2-3 0-6 1-10 1-4 1-7 1-9 2v120h-45V168c8-3 18-6 29-8 11-3 23-4 36-4 3 0 6 0 9 1 3 0 7 0 10 1 4 0 7 1 10 2 4 0 7 1 9 2l-7 37zm76 118h-45V160h45v157zm4-203c0 8-3 15-8 19-5 5-12 7-19 7s-13-2-18-7c-6-4-8-11-8-19s2-15 8-19c5-5 11-7 18-7s14 2 19 7c5 4 8 11 8 19zm139 126c0-14-3-25-9-34-7-8-16-12-28-12h-11c-4 1-6 1-9 2v80c3 2 7 4 11 5 5 1 9 2 14 2 21 0 32-15 32-43zm45-2c0 13-1 24-4 34s-7 18-13 26c-6 7-13 12-22 16-8 4-18 6-30 6-6 0-12 0-17-1-5-2-11-3-16-6v60h-44V165c4-1 8-2 14-4 5-1 10-2 16-2 6-1 11-2 17-2 6-1 12-1 17-1 13 0 25 2 35 6s19 9 26 16 12 16 16 26 5 22 5 34zm33-118l45-7v47h54v37h-54v55c0 10 2 17 5 23 3 5 10 8 20 8 5 0 10 0 15-1s10-2 14-4l6 35c-5 2-11 4-18 6-6 1-15 2-24 2-12 0-22-2-30-5s-15-8-20-14c-4-6-8-13-10-21-2-9-3-18-3-28V120z" fill="#fff" fill-rule="nonzero"/>
      <path id="mdl_txt_1" d="M2670 422h17v89c0 6-1 12-3 17s-5 9-8 12c-4 3-8 6-13 7-5 2-10 3-16 3s-11-1-16-2c-5-2-9-4-12-7-4-3-7-7-8-12-2-4-3-10-3-16h16c0 4 1 8 2 11 1 2 3 5 5 7s4 3 7 4 6 1 9 1c4 0 7 0 9-1 3-2 6-3 8-5s4-5 5-8 1-7 1-11v-89zm101 126c-1-1-1-3-2-4 0-2 0-4-1-6-1 2-3 3-5 5l-6 3c-2 1-4 2-7 3-3 0-5 1-8 1-5 0-9-1-13-2-4-2-7-4-10-6-3-3-5-6-7-9-1-3-2-7-2-11 0-5 1-9 3-13s5-7 9-10c3-2 8-4 13-6 5-1 11-2 17-2h16v-7c0-6-2-10-5-13-3-4-8-5-15-5-3 0-5 0-8 1-2 1-5 2-6 3-2 1-3 3-4 5s-2 3-2 5h-16c0-3 1-6 3-10 1-3 4-6 7-8 3-3 7-5 12-7 4-1 10-2 15-2s10 0 14 2c5 1 8 3 11 6 3 2 6 5 7 9 2 4 3 9 3 14v44c0 3 0 6 1 10 0 3 1 6 2 9v1h-16zm-27-12c3 0 6-1 8-1 3-1 5-2 7-4 2-1 4-2 6-4 1-2 2-3 3-5v-19h-13c-9 0-16 1-21 4s-8 7-8 13c0 2 1 4 1 6 1 2 2 4 4 5 1 2 3 3 5 4 3 0 5 1 8 1zm95-10l23-72h16l-33 94h-12l-34-94h16l24 72zm111 22c0-1-1-3-1-4-1-2-1-4-1-6l-5 5-6 3c-3 1-5 2-8 3-2 0-5 1-8 1-5 0-9-1-13-2-4-2-7-4-10-6-2-3-5-6-6-9-2-3-2-7-2-11 0-5 1-9 3-13s4-7 8-10c4-2 8-4 13-6 5-1 11-2 18-2h16v-7c0-6-2-10-5-13-4-4-9-5-15-5-3 0-6 0-8 1-3 1-5 2-7 3s-3 3-4 5-1 3-1 5h-16c0-3 0-6 2-10 2-3 4-6 8-8 3-3 7-5 11-7 5-1 10-2 16-2 5 0 9 0 14 2 4 1 8 3 11 6 3 2 5 5 7 9s3 9 3 14v54l3 9v1h-17zm-26-12c2 0 5-1 8-1 2-1 5-2 7-4 2-1 3-2 5-4s3-3 4-5v-19h-14c-9 0-16 1-21 4s-7 7-7 13c0 2 0 4 1 6s2 4 3 5c2 2 4 3 6 4 2 0 5 1 8 1zm134-20c0-3 0-5-1-8-1-2-3-4-5-6s-5-3-9-5-9-3-15-5-12-4-17-6c-5-3-9-5-13-8-3-3-6-6-8-10s-3-8-3-13 1-10 4-14c2-4 4-8 8-11s8-5 14-7c5-2 11-3 17-3 7 0 14 1 19 4 6 2 10 5 14 8 4 4 7 8 9 12 2 5 3 10 3 14h-17c0-3-1-6-2-9s-3-6-5-8-5-4-8-5c-4-1-8-2-13-2-4 0-8 1-11 2-4 1-6 2-8 4-3 2-4 4-5 6-1 3-2 5-2 8s1 6 2 8 3 4 5 6c3 2 6 3 9 5 4 1 8 3 14 4 7 2 13 5 18 7 5 3 10 5 13 8 3 4 6 7 8 11 1 4 2 8 2 13s-1 10-3 14-5 8-9 11c-4 2-8 5-14 6-5 2-11 3-18 3-4 0-8-1-11-1-4-1-8-2-12-4-3-1-6-3-9-5s-6-5-8-7c-3-3-4-6-6-10-1-3-2-7-2-11h17c0 4 1 8 3 11 1 3 4 5 7 7 2 2 6 4 9 5 4 1 8 1 12 1 9 0 16-2 20-5 5-4 7-9 7-15zm73 21c3 0 6-1 8-2 3-1 5-2 7-4 2-1 4-3 5-5 1-3 2-5 2-8h15c0 5-1 9-3 12-2 4-5 7-8 10s-7 5-12 7c-4 2-9 3-14 3-7 0-13-2-18-4-5-3-10-6-13-10-4-4-6-9-8-15s-2-12-2-18v-4c0-6 0-12 2-18 2-5 4-10 8-14 3-5 8-8 13-11 5-2 11-3 18-3 6 0 11 1 15 2 5 2 8 4 12 7 3 3 5 7 7 11s3 9 3 14h-15c0-3-1-6-2-8-1-3-2-5-4-7s-4-3-7-5c-3-1-6-1-9-1-5 0-9 1-12 3s-6 4-8 8c-2 3-3 6-4 10s-1 8-1 12v4c0 4 0 8 1 12s2 8 4 11 5 6 8 8 7 3 12 3zm101-68c-2 0-3-1-4-1h-4c-6 0-10 1-14 4-3 2-6 5-8 10v66h-16v-94h16v11c3-4 6-7 9-9 4-2 8-3 14-3h4c1 0 2 1 3 1v15zm32 79h-16v-94h16v94zm-18-118c0-3 1-5 3-7 1-2 4-3 7-3s5 1 7 3 2 4 2 7c0 2 0 4-2 6s-4 3-7 3-6-1-7-3c-2-2-3-4-3-6zm122 72c0 7 0 13-2 19s-4 11-7 15c-3 5-7 8-11 10-5 3-10 4-16 4s-11-1-15-3c-5-2-8-5-12-8v45h-16V454h15l1 11c3-4 7-7 11-9 5-2 10-3 16-3s11 1 15 3c5 2 9 6 12 10s5 9 7 15 2 12 2 19v2zm-16-2c0-4 0-9-1-13s-3-7-5-11c-2-3-4-5-8-7-3-2-7-3-11-3-3 0-5 1-7 1-2 1-5 2-6 3-2 1-4 2-5 4s-3 3-4 5v45c1 2 3 3 4 5s3 3 5 4c1 1 4 2 6 3 2 0 5 1 7 1 5 0 8-1 11-3 4-2 6-4 8-8 2-3 4-6 5-10 1-5 1-9 1-14v-2zm58-68v22h18v13h-18v58c0 2 1 4 1 6l3 3c0 1 2 1 3 2h8c1-1 2-1 3-1v13c-1 0-3 1-5 1-2 1-4 1-7 1s-6-1-8-2c-3 0-5-2-7-4s-4-4-5-7c-1-4-2-8-2-12v-58h-17v-13h17v-22h16zm154 58h-55v44h64v14h-80V422h79v14h-63v40h55v14zm72-21c-1 0-2-1-4-1h-4c-5 0-10 1-13 4-4 2-6 5-8 10v66h-16v-94h16v11c2-4 5-7 9-9s8-3 13-3h4c2 0 3 1 3 1v15zm60 0c-1 0-3-1-4-1h-4c-5 0-10 1-13 4-4 2-6 5-8 10v66h-16v-94h15l1 11c2-4 5-7 9-9 3-2 8-3 13-3h4c2 0 3 1 3 1v15zm9 31c0-6 1-13 3-19 2-5 5-10 8-15 4-4 8-7 14-10 5-2 11-3 17-3 7 0 13 1 18 3 5 3 10 6 14 10 3 5 6 10 8 15 2 6 3 13 3 19v2c0 7-1 13-3 19s-5 11-8 15c-4 4-9 8-14 10-5 3-11 4-18 4-6 0-12-1-17-4-5-2-10-6-14-10-3-4-6-9-8-15s-3-12-3-19v-2zm16 2c0 5 0 9 2 13 1 5 2 8 5 11 2 4 5 6 8 8s7 3 11 3c5 0 9-1 12-3s6-4 8-8c3-3 4-6 5-11 1-4 2-8 2-13v-2c0-4-1-9-2-13s-2-8-5-11c-2-3-5-5-8-7s-7-3-12-3c-4 0-8 1-11 3s-6 4-8 7c-3 3-4 7-5 11-2 4-2 9-2 13v2zm134-33c-1 0-2-1-4-1h-4c-5 0-10 1-13 4-4 2-6 5-8 10v66h-16v-94h16v11c2-4 5-7 9-9s8-3 13-3h4c2 0 3 1 3 1v15zm158 79h-17v-58h-63v58h-17V422h17v54h63v-54h17v126zm85 0c-1-1-1-3-2-4v-6c-2 2-4 3-5 5-2 1-4 2-7 3-2 1-4 2-7 3-2 0-5 1-8 1-5 0-9-1-13-2-4-2-7-4-10-6-3-3-5-6-6-9-2-3-3-7-3-11 0-5 1-9 3-13s5-7 9-10c3-2 8-4 13-6 5-1 11-2 17-2h16v-7c0-6-1-10-5-13-3-4-8-5-14-5-3 0-6 0-9 1l-6 3c-2 1-3 3-4 5s-2 3-2 5h-16c0-3 1-6 3-10 2-3 4-6 7-8 4-3 8-5 12-7 5-1 10-2 15-2 6 0 10 0 15 2 4 1 7 3 11 6 3 2 5 5 7 9 1 4 2 9 2 14v44c0 3 1 6 1 10 1 3 1 6 3 9v1h-17zm-27-12c3 0 6-1 8-1 3-1 5-2 7-4 2-1 4-2 6-4 1-2 2-3 3-5v-19h-13c-9 0-16 1-21 4s-8 7-8 13c0 2 1 4 1 6 1 2 2 4 4 5 1 2 3 3 6 4 2 0 4 1 7 1zm81-82v12c3-4 7-7 12-10 5-2 10-3 16-3 5 0 9 0 12 2 4 1 7 3 10 6 2 2 4 6 6 10 1 4 2 10 2 16v61h-16v-61c0-4 0-7-1-10-1-2-2-4-4-6-1-2-3-3-6-4-2 0-5-1-8-1-5 0-10 2-13 4-4 3-7 7-10 11v67h-16v-94h16zm78 46c0-7 1-13 3-19s4-11 7-15c4-4 7-8 12-10 4-2 10-3 15-3 6 0 11 1 15 3s8 4 11 8v-49h16v133h-15v-10c-3 4-7 7-12 9-4 2-9 3-15 3s-11-1-15-4c-5-2-8-5-12-10-3-4-5-9-7-15s-3-12-3-19v-2zm16 2c0 5 1 9 2 13 1 5 2 8 4 11s5 6 8 7c3 2 7 3 11 3 3 0 5 0 8-1 2-1 4-1 6-3 1-1 3-2 5-4l3-6v-42l-3-6c-2-1-3-3-5-4l-6-3c-3 0-5-1-8-1-4 0-8 1-11 3s-6 4-8 7c-2 4-3 7-4 11s-2 9-2 13v2zm105 46h-16V415h16v133zm43 0h-16v-94h16v94zm-17-118c0-3 1-5 2-7 2-2 4-3 7-3 4 0 6 1 8 3 1 2 2 4 2 7 0 2-1 4-2 6-2 2-4 3-8 3-3 0-5-1-7-3-1-2-2-4-2-6zm58 24l1 12c3-4 7-7 12-10 4-2 10-3 16-3 4 0 8 0 12 2 4 1 7 3 9 6 3 2 5 6 6 10 2 4 3 10 3 16v61h-16v-61c0-4-1-7-2-10 0-2-2-4-3-6-2-2-4-3-6-4-3 0-5-1-8-1-5 0-10 2-14 4-4 3-7 7-9 11v67h-16v-94h15zm79 46c0-7 1-13 2-19 2-6 5-11 8-15s7-8 11-10c5-2 10-3 16-3s11 1 15 3c5 2 8 5 11 9l1-11h15v92c0 6-1 12-3 16-2 5-5 9-8 13-4 3-8 6-13 7-5 2-10 3-16 3-2 0-5 0-8-1s-6-1-10-3c-3-1-6-3-9-5s-5-4-7-7l8-10 6 6c2 2 4 3 6 4s4 2 7 2c2 1 4 1 6 1 4 0 7-1 10-2s6-3 8-5 4-4 5-7c1-4 2-7 2-11v-8c-3 3-7 6-11 8-5 2-10 3-15 3-6 0-11-1-16-4-4-2-8-5-11-10-3-4-6-9-8-15-1-6-2-12-2-19v-2zm16 2c0 5 0 9 1 13 1 5 3 8 5 11s4 6 7 7c4 2 7 3 12 3 2 0 5 0 7-1 3-1 5-2 6-3 2-1 4-2 5-4 2-2 3-4 4-6v-42c-1-2-2-4-4-6-1-1-3-3-5-4-1-1-3-2-6-3-2 0-4-1-7-1-5 0-8 1-11 3-4 2-6 4-8 7-2 4-4 7-5 11s-1 9-1 13v2z"/>
    </g>
    <g id="tj_logo">
      <path class="logo_w" d="M3218 637h-79c-8 0-14 7-14 15v136c0 8 6 15 14 15h97c8 0 14-7 14-15V672l-32-35zm-79 151V652h69v30h28v106h-97z"/>
      <path class="logo_w" d="M3095 720c2 1 4 3 6 5s4 4 5 7c1 2 2 6 3 9 1 4 1 9 1 14v40c1 5 2 9 3 11 2 3 4 5 7 6s8 2 14 2v11h-2c-7 0-13-1-17-3-5-1-9-3-11-6-3-3-5-7-6-12-1-4-2-10-2-15v-42c0-3 0-5-1-8-1-2-2-5-4-7-1-2-4-4-6-5-3-1-6-2-9-2v-10c3 0 6-1 9-2 2-1 5-3 6-5 2-2 3-5 4-7 1-3 1-5 1-8v-42c0-6 1-11 2-15 1-5 3-9 6-12 2-3 6-5 11-6 4-2 10-3 17-3h2v11c-6 0-11 1-14 2s-5 3-7 6c-1 2-2 6-3 11v40c0 5 0 10-1 14s-2 7-3 10c-1 2-3 5-5 6-2 2-4 4-6 5zm185 0c-2 1-4 3-6 5s-3 4-5 7c-1 2-2 6-3 9 0 4-1 9-1 14v40c0 5-1 9-3 11-1 3-4 5-7 6s-7 2-13 2v11h1c7 0 13-1 18-3 4-1 8-3 11-6 2-3 4-7 5-12 1-4 2-10 2-15v-42c0-3 0-5 1-8 1-2 2-5 4-7s4-4 6-5c3-1 6-2 10-2v-10c-4 0-7-1-10-2-2-1-4-3-6-5s-3-5-4-7c-1-3-1-5-1-8v-42c0-6-1-11-2-15-1-5-3-9-5-12-3-3-7-5-11-6-5-2-11-3-18-3h-1v11c6 0 10 1 13 2s6 3 7 6c2 2 3 6 3 11v40c0 5 1 10 1 14 1 4 2 7 3 10 2 2 3 5 5 6 2 2 4 4 6 5z"/>
      <path class="logo_w" d="M3204 711c30 0 55 24 55 54s-25 55-55 55-55-25-55-55 25-54 55-54z"/>
      <path class="logo_bl" d="M3195 730h21v16l-4 33h-13l-4-33v-16zm0 54h20v17h-20v-17z"/>
      <path class="logo_w" d="M3442 659v24h-38v103h-29V683h-38v-24h105zm56-2c19 0 34 4 44 10 10 7 15 18 15 32 0 9-2 16-6 22-4 5-10 10-18 13 3 3 6 7 8 11 3 4 6 8 9 13 2 4 5 9 8 14 2 4 4 9 7 14h-32c-3-4-5-9-7-13-3-4-5-8-8-12-2-4-5-8-7-12-2-3-5-6-8-10h-14v47h-28V661c6-2 13-2 19-3 6 0 12-1 18-1zm2 25h-11v35h8c11 0 19-2 23-4 5-3 7-8 7-14s-2-11-7-13c-4-3-11-4-20-4zm174 104c-2-5-3-9-5-14-1-4-3-9-5-14h-49c-2 5-3 10-5 14-2 5-3 9-4 14h-30c4-13 9-26 13-38 4-11 9-22 13-33 4-10 8-20 12-29l12-27h28c9 18 17 37 24 56 4 10 9 21 13 33s9 25 13 38h-30zm-35-98c0 1-1 4-2 7-3 8-7 17-10 25-2 5-4 10-5 16h36c-2-6-4-11-6-16s-3-9-5-14c-2-4-3-7-5-11-1-2-2-5-3-7zm135 100c-20 0-36-5-47-17-11-11-16-28-16-49 0-10 1-20 5-28 3-8 8-15 13-21 6-6 13-10 21-13s16-4 26-4c5 0 10 0 14 1 5 1 9 2 12 3s6 2 8 3 4 2 5 3l-8 23c-4-2-9-4-14-6-5-1-11-2-18-2-4 0-8 1-13 2-4 2-8 4-11 7-3 4-6 8-8 13s-3 11-3 19c0 6 1 11 2 16 2 5 4 9 7 13s6 7 11 9 10 3 17 3c4 0 8 0 11-1 3 0 6-1 9-1 2-1 4-2 7-3 1 0 3-1 5-2l8 23c-4 2-10 4-17 6-8 2-16 3-26 3zm136-2c-3-5-6-9-9-14-4-5-7-9-11-14s-9-10-13-14-9-8-13-12v54h-29V659h29v48c7-8 15-16 22-25 8-8 15-16 21-23h34c-8 10-17 20-26 29-9 10-18 20-28 29 10 9 20 19 30 30 9 12 18 25 27 39h-34z"/>
      <path class="logo_bl" d="M4018 739c0 7-1 14-3 20-1 6-4 11-8 15-3 4-8 8-13 10-6 2-12 3-19 3h-10c-3-1-7-1-10-2l1-15c0-1 1-2 2-3s2-1 4-1h4c1 1 3 1 6 1 4 0 7-1 9-2 3-1 5-2 7-4 2-3 3-5 4-9 1-3 1-8 1-13v-86h25v86zm98-62c-1 2-2 3-2 3-1 1-2 1-4 1-1 0-2 0-4-1-1-1-3-3-5-4s-5-2-7-3c-3-1-6-1-10-1s-7 0-9 1c-3 1-5 2-7 4-1 1-3 3-3 5-1 2-2 4-2 7s1 5 3 7 4 4 7 6c3 1 6 2 10 4 3 1 7 2 11 3 4 2 7 3 11 5s7 4 10 6c3 3 5 6 7 10s2 9 2 14c0 6-1 12-3 17s-5 10-9 14-8 7-14 9-12 3-20 3c-4 0-8 0-12-1s-8-2-12-4c-4-1-7-3-10-5-4-2-7-4-9-7l7-12c1-1 1-2 2-2 1-1 2-1 4-1 1 0 3 1 5 2 1 1 3 3 6 4 2 2 5 3 8 4 4 1 8 2 12 2 7 0 13-2 16-5 4-3 6-8 6-14 0-4-1-7-2-9-2-2-4-4-7-5-3-2-6-3-10-4s-8-2-11-4c-4-1-8-2-12-4-3-2-6-4-9-7-3-2-6-6-7-10-2-4-3-9-3-15 0-5 1-10 3-14 2-5 5-9 8-12 4-4 9-7 14-9s12-3 18-3c8 0 16 1 22 3 7 3 12 6 17 11l-6 11z"/>
    </g>
  </g>
  <g opacity=".1">
    <g id="left_back">
      <ellipse cx="912" cy="458" rx="778" ry="361" fill="url(#id1)"/>
      <path id="func" d="M405 499v-7c17 0 6-26 6-36 0-17 11-21 26-21 0 4 1 7-4 7-26 0 6 47-19 53 25 7-7 54 19 54 5 0 4 3 4 7-11 0-21-1-25-12-5-15 12-45-7-45zm76 0v-7c-16 0-5-26-5-36 0-17-12-21-26-21 0 4-1 7 4 7 26 0-6 47 18 53-24 7 8 54-18 54-5 0-4 3-4 7 10 0 20-1 24-12 5-15-11-45 7-45z"/>
      <path id="errors" d="M383 329v5h-23v16h19v6h-19v16h23v5h-30v-48h30zm9 48v-34c2 0 5-1 5 2v5c3-5 9-10 15-6 0 1 0 5-1 5-6 0-10-2-13 7v21h-6zm27 0v-34c6 0 5 0 6 7 2-5 9-10 15-6-1 3 0 6-4 5-5-2-9 2-11 7v21h-6zm41-34c11 0 16 7 16 17s-5 18-16 18-16-8-16-18 5-17 16-17zm0 30c8 0 10-6 10-13 0-6-2-13-10-13s-10 7-10 13c0 7 2 13 10 13zm24 4v-34c2 0 5-1 5 2v5c3-6 9-10 16-6-1 3 0 6-4 5-5-2-9 2-11 7v21h-6zm44-28c-4-2-13-3-13 3 0 5 11 6 15 9s3 10-1 14c-5 5-16 4-21-1 1-2 2-5 4-3 4 3 12 5 14-1 5-10-17-5-17-17 0-11 16-13 23-6-1 1-2 3-4 2z"/>
      <path id="undefined" d="M177 203v18c0 9 9 8 14 3v-21h5v28c-5 0-4 1-5-4-7 8-19 6-19-6v-18h5zm27 28v-28c5 0 4-1 5 4 7-8 19-6 19 6v18h-5v-18c0-9-9-8-14-3v21h-5zm50-1v-3c-8 9-21 4-21-10 0-12 12-19 21-12v-15h5v41c-2 0-4 1-5-1zm0-7v-14c-6-7-15-3-15 8s8 14 15 6zm36-8c0 1 0 2-1 2h-19c0 9 8 14 16 8 2-1 3 1 4 2-9 9-25 4-25-11 0-18 25-19 25-1zm-20-1h16c0-11-14-11-16 0zm28 17v-24h-4c-1-1-1-2-1-4h5c0-10 7-15 17-13 0 4 0 3-3 3-7 0-10 3-10 10h18v28h-5v-24h-12v24h-5zm31 0v-28c1 0 3-1 4 1v3c8-8 19-6 19 6v18h-5v-18c0-9-9-8-13-3v21h-5zm54-16c0 1 0 2-1 2h-19c0 2 0 3 1 5 2 7 10 7 15 3 2-1 3 1 4 2-7 9-25 5-25-11 0-18 25-19 25-1zm-20-1h15c0-11-14-11-15 0zm45 16v-3c-9 10-21 4-21-10 0-12 12-20 20-12v-15h5v41c-1 0-3 1-4-1zm-1-7v-14c-5-7-15-3-15 8s9 14 15 6z"/>
      <path id="null" d="M1393 698v-34c1 0 4-1 5 1v4c2-2 3-3 5-4 7-4 15-1 17 6 1 2 1 3 1 5v22h-6v-22c0-11-11-10-16-3v25h-6zm42-34v22c0 11 11 10 17 3v-25h6v34h-4c-1 0-1 0-1-1l-1-4c-1 2-3 3-5 4-6 4-15 1-17-6 0-2-1-3-1-5v-22h6zm39-16v50h-6v-50h6zm18 0v50h-6v-50h6z"/>
      <path id="two_stars" d="M1296 818c0-5-1-17 1-21-3 4-13 9-17 11l-4-5c5-3 14-9 19-10-6 0-14-7-19-9l3-6c5 3 15 7 18 11-2-4-1-15-1-20h6c0 5 1 16-1 20 3-4 13-9 18-11l3 6c-4 2-14 9-18 9 5 1 14 7 18 10l-3 5c-4-2-15-7-18-11 2 4 1 16 1 21h-6zm61 0c0-5-1-17 0-21-2 4-12 9-17 11l-3-5c4-3 14-9 19-10-6 0-14-7-19-9l3-6c5 3 15 7 18 11-2-4-1-15-1-20h6c0 5 1 16-1 20 3-4 13-9 17-11l4 6c-4 2-14 9-19 9 5 1 15 7 19 10l-4 5c-3-2-14-7-17-11 2 4 1 16 1 21h-6z"/>
      <path id="slash_two_stars" d="M358 802c-1 4-5 3-8 3l29-71c1-4 5-4 8-4l-29 72zm45-42c0-3 0-11 1-13-2 2-8 5-11 7l-2-4c3-1 9-6 12-6-4 0-9-4-12-6l2-3c3 1 9 4 11 7-1-3-1-10-1-13h4c0 3 1 10 0 13 2-3 8-6 11-7l2 3c-3 2-9 6-12 6 3 1 9 5 12 6l-2 4c-3-2-10-5-11-7 1 2 0 9 0 13h-4zm39 0c0-3-1-11 0-13-2 2-8 5-11 7l-2-4c3-1 9-6 12-6-3 0-9-4-12-6l2-3c3 1 10 4 11 7-1-3 0-10 0-13h4c0 3 0 10-1 13 2-3 8-6 11-7l2 3c-3 2-8 6-11 6 3 1 8 5 11 6l-2 4c-2-2-9-5-11-7 1 2 1 9 1 13h-4z"/>
      <path id="tag" d="M1364 238l38 16-2 8-47-19v-9l47-20 2 9-38 15zm52 52h-10l36-104h10l-36 104zm39-67l3-9 46 20v9l-46 19-3-8 38-16-38-15z"/>
      <path id="js" d="M114 494c2 3 4 6 8 6s7-1 7-8v-41h12v42c1 9-6 17-15 18s-18-2-22-11l10-6zm37-28c0-19 27-22 35-6l-9 6c-3-7-13-8-14-1-1 12 27 7 27 29 0 20-33 24-43 4l10-5c5 9 21 9 21 1 0-10-27-7-27-28z"/>
      <path id="script" d="M123 646l18 7v6l-24-11v-4l24-11v6l-18 7zm44 7c-5-4-18-2-18-11 0-12 24-13 24 1h-5c0-7-13-8-13-1 0 5 11 4 15 8 5 3 4 10 0 13-7 5-22 2-22-8h6c0 6 8 7 12 5 2-2 2-5 1-7zm33 2h5c0 13-26 17-26-7 0-8 4-15 14-15 7 0 12 4 12 11h-5c-1-10-16-10-16 4 0 18 16 14 16 7zm27-17c-5-1-9 0-10 4v23h-6v-32h6v4c2-3 6-5 10-4v5zm10 27h-5v-32h5v32zm-6-40c0-2 2-3 4-3s3 1 3 3-1 3-3 3-4-1-4-3zm41 24c0 6-1 12-7 15-4 2-10 1-14-2v15h-5v-44h5v4c6-8 18-5 21 5v7zm-16-11c-2 0-4 2-5 4v15c2 3 7 5 11 3 8-5 6-26-6-22zm30-12v7h6v4h-6v20c0 4 3 4 6 3v5c-6 2-11-1-11-8v-20h-6v-4h6v-7h5zm32 20l-20-8v-5l25 11v4l-25 11v-6l20-7z"/>
      <path id="type_error" d="M1599 720h-12v33h-5v-33h-11v-4h28v4zm11 26l7-20h4c-2 6-9 31-13 35-2 2-5 3-8 2v-4c4 1 6 0 7-4l1-3-9-26h5l6 20zm38-6c0 11-10 18-18 10v13h-4v-37h4v3c8-10 18-1 18 11zm-18-7v13c4 7 14 4 14-6s-9-15-14-7zm23 6c0-16 23-21 23 2h-18v3c2 7 10 7 15 2l2 2c-6 10-22 5-22-9zm5-2h13c0-10-12-11-13 0zm44-1h-15v13h18v4h-23v-37h22v4h-17v12h15v4zm21-6c-4-1-7 0-8 4v19h-5v-27h4l1 3c1-3 5-5 8-3v4zm17 0c-3-1-7 0-8 4v19h-5v-27h5v3c1-3 5-5 8-3v4zm15-5c8 0 12 7 12 15 0 7-4 13-12 13s-12-6-12-13c0-8 4-15 12-15zm-8 15c0 4 2 9 8 9 5 0 8-5 8-9 0-15-16-15-16 0zm39-10c-4-1-7 0-9 4v19h-4v-27h4v3c2-3 6-5 9-3v4z"/>
      <path id="destr" d="M1408 390v-16h5v45h-5v-4c-8 10-21 2-21-12s13-23 21-13zm-16 13c0 13 12 15 16 7v-15c-5-8-16-5-16 8zm28 0c0-20 28-24 27 1h-21c0 11 11 15 18 7l3 2c-9 12-27 6-27-10zm6-3h16c-1-12-15-12-16 0zm42 6c-5-2-15-2-15-10 0-13 24-13 24 0h-5s-1-1-1-2c-2-5-12-4-12 2s14 3 18 10c2 6-2 11-7 13-7 2-18-1-18-10h6c0 5 6 7 10 5 5-1 5-6 0-8zm24-27v8h6v4h-6v20c0 4 2 4 6 3v5c-7 1-12-1-12-8v-20h-6v-4h6v-8h6zm27 13c-4-1-8 0-10 4v23h-5v-32h5v4c2-3 7-6 10-4v5zm17-6c10 0 15 8 15 17s-5 16-15 16c-9 0-14-7-14-16s5-17 14-17zm-8 17c0 6 2 12 8 12 7 0 9-6 9-12s-2-12-9-12c-6 0-8 6-8 12zm40 8l7-24h6l-13 36c-2 6-6 10-12 8v-4c4 0 7-2 8-6l1-3-11-31h6l8 24zm30 8c-10 0-14-7-14-16 0-20 27-24 27 1h-22c0 6 4 11 10 11 3 0 6-2 8-4l3 2c-3 4-7 6-12 6zm-9-19h16c0-12-14-12-16 0zm26 3c0-14 13-23 22-13v-16h5v45h-5v-4c-9 10-22 2-22-12zm22 7v-15c-4-6-14-5-16 3v5c0 13 11 15 16 7z"/>
      <path id="func_js" d="M1566 572v-5c11 0 4-17 4-24 0-11 8-14 18-14 0 3 1 5-3 5-18 0 4 31-12 36 14 4-1 25 6 33 2 2 4 3 6 3 4 0 3 2 3 5-7 0-14-1-17-9-3-9 8-30-5-30zm107 0v-5c-11 0-4-17-4-24 0-11-8-14-18-14 0 3-1 5 3 5 18 0-4 31 12 36-16 4 6 36-12 36-4 0-3 2-3 5 7 0 14-1 17-9 3-9-8-30 5-30zm-65-21v40c0 8-6 12-14 10v-5c4 1 7 0 7-5v-40h7zm-6-12c1-1 4-1 5 0s1 4 0 5-4 1-5 0c-2-1-2-4 0-5zm36 39c0-6-9-7-13-8-6-2-10-7-7-13 4-8 17-8 23-3 2 2 3 5 3 8h-6c0-7-12-9-14-3-2 3 0 5 4 6 4 2 9 2 13 5 7 6 3 15-5 17-8 3-20-1-20-11h6c1 9 16 9 16 2z"/>
      <animate id="l_back_blick" attributeType="CSS" attributeName="opacity" values="1;0;1;0.2;1;0.2;1;0.4" begin="but_blick.begin" dur="0.7s" fill="freeze"/>
    </g>
    <set attributeName="opacity" attributeType="XML" begin="but_blick.begin" to=".6"/>
  </g>
  <g id="left_nimb">
    <g>
      <circle id="star1_wrp" class="star_wrp" cx="588" cy="271" r="57"/>
      <path id="star1" d="M604 272l13-11c11-10-3-27-14-17l-14 11-11-13c-10-12-27 3-17 14l11 14-13 11c-12 9 3 27 14 17l14-11 11 13c9 12 27-3 17-14l-11-14z"/>
      <animateTransform attributeName="transform" attributeType="XML" type="rotate" dur="0.6s" fill="freeze" values="-180 588 271;0 588 271" begin="0s" repeatCount="indefinite"/>
    </g>
    <g>
      <circle id="star2_wrp" class="star_wrp" cx="1250" cy="170" r="57"/>
      <path id="star2" d="M1272 171l15 19c13 15-10 35-23 20l-16-19-18 16c-16 13-35-11-20-24l19-15-16-19c-13-15 11-35 24-19l15 18 19-15c15-13 35 10 19 23l-18 15z"/>
      <animateTransform attributeName="transform" attributeType="XML" type="rotate" dur="0.6s" fill="freeze" values="-90 1250 170;0 1250 170" begin="0s" repeatCount="indefinite"/>
    </g>
    <path d="M1171 166c-1 16-24 29-69 38 31-7 49-16 49-27 2-68-540-86-542-19-1 14 29 24 39 28-16-2-57-18-57-39 11-90 570-68 580 19z" fill="#2b2d42" fill-opacity=".3"/>
    <circle id="ndot1" r="18">
      <animateMotion dur="1.5s" fill="freeze" repeatCount="indefinite" path="M661 191c-40,-14 -63,-34 -63,-52 0,-60 230,-63 283,-61 57,2 281,26 283,82 1,40 -128,71 -284,65 -88,-3 -167,-16 -219,-34z"/>
    </circle>
    <circle id="ndot2" r="22">
      <animateMotion dur="1.5s" fill="freeze" repeatCount="indefinite" path="M1011 90c91,16 152,50 153,70 1,40 -127,67 -283,61 -156,-5 -283,-42 -283,-82 0,-40 127,-67 283,-61 47,1 91,6 130,12z"/>
    </circle>
    <path id="nstar1" transform="translate(-710 -90)" d="M729 89l13-12c12-9-3-26-14-17l-14 12-11-14c-10-11-27 3-17 15l11 13-13 12c-12 9 3 26 14 17l14-12 11 14c10 11 27-3 17-15l-11-13z">
      <animateMotion dur="1.5s" fill="freeze" repeatCount="indefinite" path="M715 85c46,-7 104,-10 166,-7 57,2 281,26 283,82 1,40 -127,67 -283,61 -156,-5 -283,-42 -283,-82 0,-24 46,-43 117,-54z"/>
    </path>
    <path id="nstar2" transform="translate(-980 -210)" d="M1002 219l13-12c11-9-3-26-14-17l-14 12-11-14c-10-11-27 3-17 15l11 13-14 12c-11 9 4 26 15 17l13-12 12 14c9 11 27-3 17-15l-11-13z">
      <animateMotion dur="1.5s" fill="freeze" repeatCount="indefinite" path="M988 223c-34,3 -70,4 -108,2 -50,-2 -282,-20 -282,-86 0,-60 230,-63 283,-61 57,2 281,26 283,82 1,30 -73,55 -176,63z"/>
    </path>
  </g>
  <g id="left_guy">
    <g id="guy_arms">
      <path id="arm_right" d="M1306 624c1 4 0 11-4 12-5 2-21-8-25-12-15 1-10 15-16 24-3 5-8 10-14 6-2-2 0-5 1-10 11-31-15-48 13-74-19-49-70-62-115-75l5-16c52 15 108 31 128 90 8 2 19 7 25 13 2 1 10 3 11 6 2 2 2 9-2 10 4 3 3 13-2 13 2 4 1 15-5 13z"/>
      <path id="arm_left" d="M537 714c1 3 4 9 8 9 5 0 16-17 17-22 8-3 13 0 17 7 4 5 19 17 23 6 1-2-1-5-5-8-21-21-7-44-33-56-13-104 105-132 183-149l-3-16c-86 18-208 51-197 161-11 4-24 18-27 29-2 1-3 3-4 4-1 2-4 5-4 6 0 4 3 9 7 9-2 4 3 13 8 10-1 5 4 14 10 10z"/>
    </g>
    <path opacity=".25" transform="translate(30 50)" d="M716 154h346l131 172-29 437c-1 12-10 21-21 22l-425 44c-13 1-24-8-26-21V178c0-13 11-24 24-24z" filter="url(&quot;#blur2&quot;)" fill="#2b2d42"/>
    <path d="M716 154h346l131 172-29 437c-1 12-10 21-21 22l-425 44c-13 1-24-8-26-21V178c0-13 11-24 24-24z" stroke="#fff" stroke-width="10" fill="#fff" fill-rule="nonzero"/>
    <path d="M1189 327l-130-168H716c-11 0-19 8-19 19v628c0 11 9 20 21 18l425-43c9-1 16-9 17-18l29-436z" fill="none" stroke="#f6511d" stroke-width="12"/>
    <path id="g_eye_left" d="M835 316l-7 16-16-6c-14-6-22 15-9 20l17 7-7 16c-5 14 16 23 21 9l7-17 16 7c14 6 22-15 9-21l-17-6 7-17c5-14-16-22-21-8z"/>
    <path id="g_eye_right" d="M947 341l17 6-7 17c-6 13 15 22 21 8l6-16 17 6c13 6 22-15 8-21l-16-6 6-17c6-13-15-22-20-8l-7 16-16-6c-14-6-23 15-9 21z"/>
    <path class="fil10" d="M701 222v585c2 11 12 16 29 13 27-5 333-32 342-37 6-3-95 5-304 24-32 3-48-7-49-29s-7-207-18-556z" fill="#f3d0d0"/>
    <path stroke="#c52623" stroke-width="8" stroke-linecap="square" stroke-opacity=".1" d="M763 579h363"/>
    <path stroke="#c52623" stroke-width="8" stroke-linecap="square" stroke-opacity=".3" d="M763 629h363M763 670h175"/>
    <path d="M1080 307l109 13-127-163-14 109c-2 20 12 38 32 41z" fill="#f6511d"/>
    <path d="M1080 735c0 19-13 28-30 25 0-3-1-10 3-10 10 1 16 0 16-14v-42l11 2v39zm43-24c-5-3-21-8-21 2s22 7 28 18c3 5-1 14-5 18-9 8-27 9-37 0 2-3 4-9 9-6s21 6 23-4c1-6-14-9-20-11-8-4-11-13-8-21 7-13 29-8 38-1-2 3-3 7-7 5z" fill="#d0d0d0"/>
    <path d="M1009 438l-25 22-24-22c-3-2-10-2-13 0l-26 23-26-23c-3-2-10-2-12 0l-26 23-26-23c-3-2-10-2-13 0l-29 26c-8 6 2 18 9 12l26-23 26 23c3 2 10 2 13 0l26-23 26 23c3 2 9 2 12 0l26-23 26 23c3 2 7 2 10 0l26-23 26 23c7 6 17-6 9-12l-29-26c-3-2-9-2-12 0z" fill="#2b2d42"/>
  </g>
</svg>